<svg width="226" height="32" viewBox="0 0 226 32" fill="none" xmlns="http://www.w3.org/2000/svg">
<path d="M4.1 29.15C2.41 29.15 1.44 27.75 1.44 25.57C1.44 23.35 2.49 21.99 4.11 21.99C5.73 21.99 6.76 23.33 6.76 25.57C6.76 27.75 5.81 29.15 4.1 29.15ZM4.11 28.42C5.33 28.42 5.89 27.34 5.89 25.57C5.89 23.83 5.3 22.71 4.11 22.71C2.9 22.71 2.31 23.8 2.31 25.57C2.31 27.31 2.9 28.42 4.11 28.42ZM8.89469 29V24.01H7.39469V23.45C8.23469 23.43 8.95469 23.12 9.08469 22.11H9.73469V29H8.89469ZM10.8217 29C10.9017 27.17 12.1917 26.5 13.3917 25.81C14.2917 25.29 14.8417 24.94 14.8417 24.11C14.8417 23.27 14.2617 22.7 13.3517 22.7C12.8717 22.7 12.5117 22.86 12.2617 23.13C11.9917 23.42 11.8717 23.8 11.8717 24.5H10.9917C10.9917 23.62 11.2217 23.06 11.6417 22.64C12.0817 22.21 12.7217 22 13.4217 22C14.8117 22 15.7117 22.88 15.7117 24.1C15.7117 25.42 14.8117 25.86 13.7117 26.47C12.9717 26.88 12.0217 27.44 11.8317 28.2H15.5717V29H10.8217ZM18.9784 29.15C17.4684 29.15 16.2784 28.3 16.2484 26.74H17.0784C17.1084 27.84 17.8184 28.45 18.9484 28.45C19.8984 28.45 20.5684 27.98 20.5684 27.01C20.5684 26.14 19.9184 25.68 18.7684 25.68H18.3384V25.03H18.7584C19.8284 25.03 20.3684 24.58 20.3684 23.85C20.3684 23.1 19.6984 22.65 18.8784 22.65C17.8884 22.65 17.2984 23.29 17.2984 24.24H16.4784C16.4884 22.89 17.3984 21.99 18.9084 21.99C20.1784 21.99 21.1884 22.68 21.1884 23.87C21.1884 24.64 20.7184 25.09 20.0584 25.31V25.34C21.0184 25.59 21.4384 26.2 21.4384 27.09C21.4384 28.4 20.3684 29.15 18.9784 29.15Z" fill="white"/>
<path d="M30.67 29V21.85H31.82L34.14 27.79H34.16L36.46 21.85H37.63V29H36.77V23.12H36.75C36.75 23.12 36.56 23.68 36.43 24.02L34.47 29H33.78L31.82 24.02C31.68 23.66 31.5 23.12 31.5 23.12H31.48V29H30.67ZM41.0608 29.14C39.4808 29.14 38.5608 27.92 38.5608 26.42C38.5608 24.92 39.5408 23.7 41.0108 23.7C42.5608 23.7 43.3908 24.9 43.3908 26.61H39.3908C39.4508 27.66 40.0208 28.46 41.0608 28.46C41.8108 28.46 42.3108 28.1 42.4908 27.4H43.2808C43.0408 28.51 42.2308 29.14 41.0608 29.14ZM41.0108 24.34C40.0508 24.34 39.5308 25.06 39.4108 26H42.5208C42.4708 24.97 41.9408 24.34 41.0108 24.34ZM46.1828 29.15C44.7728 29.15 43.8928 28.09 43.8928 26.43C43.8928 24.71 44.8828 23.71 46.1628 23.71C46.8928 23.71 47.4528 24.07 47.7828 24.56H47.8028V21.85H48.6128V29H47.8028V28.37H47.7828C47.3928 28.87 46.9128 29.15 46.1828 29.15ZM46.2128 28.47C47.3628 28.47 47.8528 27.61 47.8528 26.44C47.8528 25.24 47.2728 24.4 46.2028 24.4C45.2228 24.4 44.7228 25.28 44.7228 26.44C44.7228 27.61 45.2228 28.47 46.2128 28.47ZM49.7102 29V23.83H50.5202V29H49.7102ZM49.7102 22.85V21.85H50.5202V22.85H49.7102ZM53.8342 29.14C52.2942 29.14 51.3342 27.92 51.3342 26.42C51.3342 24.92 52.2942 23.7 53.8342 23.7C55.0542 23.7 55.8642 24.4 56.0442 25.5H55.2242C55.1042 24.8 54.6142 24.37 53.8342 24.37C52.7342 24.37 52.1642 25.28 52.1642 26.42C52.1642 27.56 52.7342 28.46 53.8342 28.46C54.6742 28.46 55.1742 27.98 55.2442 27.18H56.0442C55.9342 28.42 55.1242 29.14 53.8342 29.14ZM60.9674 29.05C60.4374 29.05 60.1574 28.81 60.0774 28.28H60.0674C59.7574 28.68 59.2274 29.1 58.3474 29.1C57.3674 29.1 56.5974 28.64 56.5974 27.66C56.5974 26.44 57.5574 26.19 58.8474 25.99C59.5774 25.88 60.0874 25.81 60.0874 25.25C60.0874 24.67 59.6674 24.34 58.9274 24.34C58.0874 24.34 57.6674 24.7 57.6374 25.48H56.8574C56.8874 24.48 57.5474 23.73 58.9174 23.73C60.0174 23.73 60.8274 24.14 60.8274 25.37V27.83C60.8274 28.25 60.9274 28.48 61.3774 28.38H61.4074V28.97C61.3074 29.01 61.1774 29.05 60.9674 29.05ZM58.5274 28.48C59.6074 28.48 60.0974 27.69 60.0974 27.09V26.21C59.8274 26.38 59.3574 26.51 58.9174 26.59C58.1074 26.74 57.4574 26.88 57.4574 27.64C57.4574 28.33 57.9974 28.48 58.5274 28.48ZM62.0351 29V21.85H62.8451V29H62.0351ZM67.5695 29.15C66.1595 29.15 65.2795 28.09 65.2795 26.43C65.2795 24.71 66.2695 23.71 67.5495 23.71C68.2795 23.71 68.8395 24.07 69.1695 24.56H69.1895V21.85H69.9995V29H69.1895V28.37H69.1695C68.7795 28.87 68.2995 29.15 67.5695 29.15ZM67.5995 28.47C68.7495 28.47 69.2395 27.61 69.2395 26.44C69.2395 25.24 68.6595 24.4 67.5895 24.4C66.6095 24.4 66.1095 25.28 66.1095 26.44C66.1095 27.61 66.6095 28.47 67.5995 28.47ZM73.3069 29.14C71.7269 29.14 70.8069 27.92 70.8069 26.42C70.8069 24.92 71.7869 23.7 73.2569 23.7C74.8069 23.7 75.6369 24.9 75.6369 26.61H71.6369C71.6969 27.66 72.2669 28.46 73.3069 28.46C74.0569 28.46 74.5569 28.1 74.7369 27.4H75.5269C75.2869 28.51 74.4769 29.14 73.3069 29.14ZM73.2569 24.34C72.2969 24.34 71.7769 25.06 71.6569 26H74.7669C74.7169 24.97 74.1869 24.34 73.2569 24.34ZM77.6113 29L75.8013 23.83H76.6713L77.7413 27.11C77.8913 27.57 78.0813 28.2 78.0813 28.2H78.1013C78.1013 28.2 78.2913 27.56 78.4413 27.11L79.5313 23.83H80.3713L78.5113 29H77.6113ZM80.9406 29V23.83H81.7506V29H80.9406ZM80.9406 22.85V21.85H81.7506V22.85H80.9406ZM85.0647 29.14C83.5247 29.14 82.5647 27.92 82.5647 26.42C82.5647 24.92 83.5247 23.7 85.0647 23.7C86.2847 23.7 87.0947 24.4 87.2747 25.5H86.4547C86.3347 24.8 85.8447 24.37 85.0647 24.37C83.9647 24.37 83.3947 25.28 83.3947 26.42C83.3947 27.56 83.9647 28.46 85.0647 28.46C85.9047 28.46 86.4047 27.98 86.4747 27.18H87.2747C87.1647 28.42 86.3547 29.14 85.0647 29.14ZM90.2502 29.14C88.6702 29.14 87.7502 27.92 87.7502 26.42C87.7502 24.92 88.7302 23.7 90.2002 23.7C91.7502 23.7 92.5802 24.9 92.5802 26.61H88.5802C88.6402 27.66 89.2102 28.46 90.2502 28.46C91.0002 28.46 91.5002 28.1 91.6802 27.4H92.4702C92.2302 28.51 91.4202 29.14 90.2502 29.14ZM90.2002 24.34C89.2402 24.34 88.7202 25.06 88.6002 26H91.7102C91.6602 24.97 91.1302 24.34 90.2002 24.34ZM99.0241 29.05C98.4941 29.05 98.2141 28.81 98.1341 28.28H98.1241C97.8141 28.68 97.2841 29.1 96.4041 29.1C95.4241 29.1 94.6541 28.64 94.6541 27.66C94.6541 26.44 95.6141 26.19 96.9041 25.99C97.6341 25.88 98.1441 25.81 98.1441 25.25C98.1441 24.67 97.7241 24.34 96.9841 24.34C96.1441 24.34 95.7241 24.7 95.6941 25.48H94.9141C94.9441 24.48 95.6041 23.73 96.9741 23.73C98.0741 23.73 98.8841 24.14 98.8841 25.37V27.83C98.8841 28.25 98.9841 28.48 99.4341 28.38H99.4641V28.97C99.3641 29.01 99.2341 29.05 99.0241 29.05ZM96.5841 28.48C97.6641 28.48 98.1541 27.69 98.1541 27.09V26.21C97.8841 26.38 97.4141 26.51 96.9741 26.59C96.1641 26.74 95.5141 26.88 95.5141 27.64C95.5141 28.33 96.0541 28.48 96.5841 28.48ZM102.272 29.14C100.732 29.14 99.7717 27.92 99.7717 26.42C99.7717 24.92 100.732 23.7 102.272 23.7C103.492 23.7 104.302 24.4 104.482 25.5H103.662C103.542 24.8 103.052 24.37 102.272 24.37C101.172 24.37 100.602 25.28 100.602 26.42C100.602 27.56 101.172 28.46 102.272 28.46C103.112 28.46 103.612 27.98 103.682 27.18H104.482C104.372 28.42 103.562 29.14 102.272 29.14ZM107.457 29.14C105.917 29.14 104.957 27.92 104.957 26.42C104.957 24.92 105.917 23.7 107.457 23.7C108.677 23.7 109.487 24.4 109.667 25.5H108.847C108.727 24.8 108.237 24.37 107.457 24.37C106.357 24.37 105.787 25.28 105.787 26.42C105.787 27.56 106.357 28.46 107.457 28.46C108.297 28.46 108.797 27.98 108.867 27.18H109.667C109.557 28.42 108.747 29.14 107.457 29.14ZM112.643 29.14C111.103 29.14 110.143 27.92 110.143 26.42C110.143 24.92 111.103 23.7 112.643 23.7C114.193 23.7 115.133 24.92 115.133 26.42C115.133 27.92 114.193 29.14 112.643 29.14ZM112.643 28.46C113.743 28.46 114.303 27.56 114.303 26.42C114.303 25.28 113.743 24.37 112.643 24.37C111.543 24.37 110.973 25.28 110.973 26.42C110.973 27.56 111.543 28.46 112.643 28.46ZM116.751 23.83V24.69H116.771C117.081 24.19 117.621 23.77 118.311 23.77C118.461 23.77 118.541 23.79 118.641 23.83V24.61H118.611C118.491 24.57 118.411 24.56 118.251 24.56C117.451 24.56 116.751 25.16 116.751 26.13V29H115.941V23.83H116.751ZM121.173 29.15C119.763 29.15 118.883 28.09 118.883 26.43C118.883 24.71 119.873 23.71 121.153 23.71C121.883 23.71 122.443 24.07 122.773 24.56H122.793V21.85H123.603V29H122.793V28.37H122.773C122.383 28.87 121.903 29.15 121.173 29.15ZM121.203 28.47C122.353 28.47 122.843 27.61 122.843 26.44C122.843 25.24 122.263 24.4 121.193 24.4C120.213 24.4 119.713 25.28 119.713 26.44C119.713 27.61 120.213 28.47 121.203 28.47ZM124.7 29V23.83H125.51V29H124.7ZM124.7 22.85V21.85H125.51V22.85H124.7ZM127.424 23.83V24.51H127.444C127.814 24.02 128.334 23.71 129.084 23.71C130.164 23.71 130.824 24.3 130.824 25.37V29H130.014V25.44C130.014 24.77 129.574 24.39 128.844 24.39C128.024 24.39 127.424 24.97 127.424 25.82V29H126.614V23.83H127.424ZM133.958 30.72C132.618 30.72 131.858 30.18 131.768 29.29H132.518C132.598 29.86 133.138 30.08 133.938 30.08C134.888 30.08 135.418 29.65 135.418 28.75V28.02H135.398C135.018 28.51 134.608 28.82 133.868 28.82C132.528 28.82 131.608 27.75 131.608 26.26C131.608 24.65 132.618 23.71 133.818 23.71C134.568 23.71 135.048 24 135.398 24.49H135.418V23.83H136.228V28.72C136.228 30.08 135.328 30.72 133.958 30.72ZM133.908 28.14C135.098 28.14 135.478 27.31 135.478 26.22C135.478 25.09 134.998 24.39 133.898 24.39C132.928 24.39 132.438 25.15 132.438 26.27C132.438 27.4 132.948 28.14 133.908 28.14ZM138.589 24.49V23.83H139.339V22.2H140.149V23.83H141.149V24.49H140.149V27.85C140.149 28.21 140.339 28.33 140.669 28.33C140.829 28.33 141.009 28.29 141.099 28.26H141.129V28.96C140.939 29 140.719 29.03 140.479 29.03C139.819 29.03 139.339 28.76 139.339 28.03V24.49H138.589ZM144.147 29.14C142.607 29.14 141.647 27.92 141.647 26.42C141.647 24.92 142.607 23.7 144.147 23.7C145.697 23.7 146.637 24.92 146.637 26.42C146.637 27.92 145.697 29.14 144.147 29.14ZM144.147 28.46C145.247 28.46 145.807 27.56 145.807 26.42C145.807 25.28 145.247 24.37 144.147 24.37C143.047 24.37 142.477 25.28 142.477 26.42C142.477 27.56 143.047 28.46 144.147 28.46ZM149.156 29V21.85H154.206V22.64H150.056V24.9H153.826V25.66H150.056V28.17H154.326V29H149.156ZM157.997 29.11C156.437 29.11 155.257 28.42 155.257 26.69V21.85H156.157V26.6C156.157 27.82 156.847 28.34 158.027 28.34C159.157 28.34 159.837 27.82 159.837 26.6V21.85H160.737V26.69C160.737 28.42 159.527 29.11 157.997 29.11ZM163.551 29V21.85H164.701L167.021 27.79H167.041L169.341 21.85H170.511V29H169.651V23.12H169.631C169.631 23.12 169.441 23.68 169.311 24.02L167.351 29H166.661L164.701 24.02C164.561 23.66 164.381 23.12 164.381 23.12H164.361V29H163.551ZM171.852 29V21.85H174.452C176.602 21.85 177.622 23.31 177.622 25.45C177.622 27.59 176.532 29 174.382 29H171.852ZM172.752 28.21H174.352C176.032 28.21 176.702 27.13 176.702 25.45C176.702 23.77 176.102 22.63 174.422 22.63H172.752V28.21ZM178.688 29V21.85H182.028C183.288 21.85 184.138 22.64 184.138 23.81C184.138 24.68 183.758 25.3 182.898 25.58V25.61C183.628 25.87 183.858 26.37 183.928 27.43C184.008 28.58 184.128 28.87 184.258 28.96V29H183.288C183.138 28.87 183.108 28.6 183.028 27.4C182.958 26.35 182.538 25.98 181.578 25.98H179.588V29H178.688ZM179.588 22.63V25.25H181.708C182.708 25.25 183.208 24.75 183.208 23.94C183.208 23.07 182.808 22.63 181.758 22.63H179.588ZM186.462 29C186.542 27.17 187.832 26.5 189.032 25.81C189.932 25.29 190.482 24.94 190.482 24.11C190.482 23.27 189.902 22.7 188.992 22.7C188.512 22.7 188.152 22.86 187.902 23.13C187.632 23.42 187.512 23.8 187.512 24.5H186.632C186.632 23.62 186.862 23.06 187.282 22.64C187.722 22.21 188.362 22 189.062 22C190.452 22 191.352 22.88 191.352 24.1C191.352 25.42 190.452 25.86 189.352 26.47C188.612 26.88 187.662 27.44 187.472 28.2H191.212V29H186.462ZM194.809 29.15C193.119 29.15 192.149 27.75 192.149 25.57C192.149 23.35 193.199 21.99 194.819 21.99C196.439 21.99 197.469 23.33 197.469 25.57C197.469 27.75 196.519 29.15 194.809 29.15ZM194.819 28.42C196.039 28.42 196.599 27.34 196.599 25.57C196.599 23.83 196.009 22.71 194.819 22.71C193.609 22.71 193.019 23.8 193.019 25.57C193.019 27.31 193.609 28.42 194.819 28.42ZM199.604 29V24.01H198.104V23.45C198.944 23.43 199.664 23.12 199.794 22.11H200.444V29H199.604ZM202.421 29C202.571 26.61 203.821 24.16 205.361 22.92V22.9H201.451V22.15H206.241V22.84C204.841 24.07 203.461 26.28 203.321 29H202.421ZM209.968 21.86L207.308 29H206.448L209.108 21.86H209.968ZM211.268 29C211.418 26.61 212.668 24.16 214.208 22.92V22.9H210.298V22.15H215.088V22.84C213.688 24.07 212.308 26.28 212.168 29H211.268ZM217.982 29V27.32H214.752V26.57L218.142 22.08H218.802V26.65H219.932V27.32H218.802V29H217.982ZM215.562 26.62V26.65H217.982V23.44H217.962L215.562 26.62ZM222.906 29.15C221.486 29.15 220.446 28.29 220.386 27.02H221.216C221.326 27.87 221.926 28.41 222.896 28.41C223.876 28.41 224.506 27.75 224.506 26.75C224.506 25.72 223.796 25.12 222.896 25.12C222.156 25.12 221.646 25.42 221.356 25.83H220.546L221.306 22.15H224.956V22.9H221.896L221.446 24.96H221.466C221.856 24.59 222.376 24.38 223.036 24.38C224.256 24.38 225.366 25.25 225.366 26.77C225.366 28.23 224.326 29.15 222.906 29.15Z" fill="white"/>
<g clip-path="url(#clip0_325_3887)">
<path fill-rule="evenodd" clip-rule="evenodd" d="M9.42857 15.9599C9.14375 15.9866 8.85768 16 8.57143 16C6.29814 16 4.11797 15.1571 2.51051 13.6569C0.903059 12.1566 0 10.1217 0 8C0 5.87827 0.903059 3.84344 2.51051 2.34315C4.11797 0.842855 6.29814 0 8.57143 0C8.85768 -7.69146e-09 9.14375 0.0133836 9.42857 0.0401005V2.4401C9.14425 2.40765 8.8578 2.39425 8.57143 2.4C6.98013 2.4 5.45401 2.99 4.32879 4.0402C3.20357 5.09041 2.57143 6.51479 2.57143 8C2.57143 9.48521 3.20357 10.9096 4.32879 11.9598C5.45401 13.01 6.98013 13.6 8.57143 13.6C8.8578 13.6057 9.14425 13.5923 9.42857 13.5599V15.9599Z" fill="white"/>
<path fill-rule="evenodd" clip-rule="evenodd" d="M24.0008 15.9599C23.716 15.9866 23.4299 16 23.1437 16C20.8704 16 18.6902 15.1571 17.0828 13.6569C15.4753 12.1566 14.5723 10.1217 14.5723 8C14.5723 5.87827 15.4753 3.84344 17.0828 2.34315C18.6902 0.842855 20.8704 0 23.1437 0C23.4299 -7.69146e-09 23.716 0.0133836 24.0008 0.0401005V2.4401C23.7165 2.40765 23.4301 2.39425 23.1437 2.4C21.7757 2.3999 20.4487 2.83612 19.3827 3.63637C18.3167 4.43662 17.5757 5.55284 17.2826 6.8H22.2866V9.2H17.2826C17.5757 10.4472 18.3167 11.5634 19.3827 12.3636C20.4487 13.1639 21.7757 13.6001 23.1437 13.6C23.4301 13.6057 23.7165 13.5923 24.0008 13.5599V15.9599Z" fill="white"/>
</g>
<defs>
<clipPath id="clip0_325_3887">
<rect width="24" height="16" fill="white"/>
</clipPath>
</defs>
</svg>
