<?xml version="1.0" encoding="UTF-8" standalone="no"?>
<!DOCTYPE svg PUBLIC "-//W3C//DTD SVG 1.1//EN" "http://www.w3.org/Graphics/SVG/1.1/DTD/svg11.dtd">
<svg width="100%" height="100%" viewBox="0 0 2600 800" version="1.1" xmlns="http://www.w3.org/2000/svg" xmlns:xlink="http://www.w3.org/1999/xlink" xml:space="preserve" xmlns:serif="http://www.serif.com/" style="fill-rule:evenodd;clip-rule:evenodd;stroke-linejoin:round;stroke-miterlimit:2;">
    <g transform="matrix(1,0,0,1,-200,-600)">
        <g transform="matrix(1,0,0,1,-881.233,201.878)">
            <path d="M1131.32,675.23L1377.11,675.23L1377.11,840.641C1377.11,884.814 1340.96,921.015 1296.73,921.015L1131.32,921.015L1131.32,675.23Z" style="fill:url(#_Linear1);"/>
        </g>
        <g transform="matrix(1,0,0,1,-881.233,201.878)">
            <path d="M1596.5,675.23C1615.33,656.332 1622.89,631.293 1622.89,604.01L1622.89,429.445L1377.11,429.445L1377.11,840.641C1377.11,884.814 1340.96,921.015 1296.73,921.015L1305.94,921.015C1335.94,921.015 1361.81,910.326 1383.07,889.066L1596.5,675.23Z" style="fill:url(#_Linear2);"/>
        </g>
        <g transform="matrix(1,0,0,1,-881.233,201.878)">
            <path d="M1868.68,921.015L1622.89,921.015L1622.89,755.603C1622.89,711.371 1659.04,675.23 1703.27,675.23L1868.68,675.23L1868.68,921.015Z" style="fill:url(#_Linear3);"/>
        </g>
        <g transform="matrix(1,0,0,1,-881.233,201.878)">
            <path d="M1403.5,921.015C1384.67,939.853 1377.11,964.892 1377.11,992.175L1377.11,1166.8L1622.89,1166.8L1622.89,755.603C1622.89,711.371 1659.04,675.23 1703.27,675.23L1694.11,675.23C1664.06,675.23 1638.19,685.919 1616.93,707.178L1403.5,921.015Z" style="fill:url(#_Linear4);"/>
        </g>
    </g>
    <g transform="matrix(1,0,0,1,-302.642,-604.583)">
        <path d="M1361.05,887.542L1275.93,887.542L1260.25,930.942L1233.37,930.942L1303.93,736.902L1333.33,736.902L1403.61,930.942L1376.73,930.942L1361.05,887.542ZM1353.77,866.822L1318.49,768.262L1283.21,866.822L1353.77,866.822Z" style="fill:white;fill-rule:nonzero;"/>
        <rect x="1434.41" y="735.782" width="25.48" height="195.16" style="fill:white;fill-rule:nonzero;"/>
        <path d="M1776.01,737.182L1776.01,930.942L1750.53,930.942L1750.53,786.462L1686.13,930.942L1668.21,930.942L1603.53,786.182L1603.53,930.942L1578.05,930.942L1578.05,737.182L1605.49,737.182L1677.17,897.342L1748.85,737.182L1776.01,737.182Z" style="fill:white;fill-rule:nonzero;"/>
        <path d="M1959.13,848.342C1959.13,853.196 1958.85,858.329 1958.29,863.742L1835.65,863.742C1836.59,878.862 1841.77,890.669 1851.19,899.162C1860.62,907.656 1872.05,911.902 1885.49,911.902C1896.51,911.902 1905.7,909.336 1913.07,904.202C1920.45,899.069 1925.63,892.209 1928.61,883.622L1956.05,883.622C1951.95,898.369 1943.73,910.362 1931.41,919.602C1919.09,928.842 1903.79,933.462 1885.49,933.462C1870.93,933.462 1857.91,930.196 1846.43,923.662C1834.95,917.129 1825.95,907.842 1819.41,895.802C1812.88,883.762 1809.61,869.809 1809.61,853.942C1809.61,838.076 1812.79,824.169 1819.13,812.222C1825.48,800.276 1834.39,791.082 1845.87,784.642C1857.35,778.202 1870.56,774.982 1885.49,774.982C1900.05,774.982 1912.93,778.156 1924.13,784.502C1935.33,790.849 1943.97,799.576 1950.03,810.682C1956.1,821.789 1959.13,834.342 1959.13,848.342ZM1932.81,843.022C1932.81,833.316 1930.67,824.962 1926.37,817.962C1922.08,810.962 1916.25,805.642 1908.87,802.002C1901.5,798.362 1893.33,796.542 1884.37,796.542C1871.49,796.542 1860.53,800.649 1851.47,808.862C1842.42,817.076 1837.24,828.462 1835.93,843.022L1932.81,843.022Z" style="fill:white;fill-rule:nonzero;"/>
        <path d="M1983.21,853.662C1983.21,837.982 1986.39,824.216 1992.73,812.362C1999.08,800.509 2007.81,791.316 2018.91,784.782C2030.02,778.249 2042.48,774.982 2056.29,774.982C2068.24,774.982 2079.35,777.736 2089.61,783.242C2099.88,788.749 2107.72,795.982 2113.13,804.942L2113.13,723.742L2138.89,723.742L2138.89,930.942L2113.13,930.942L2113.13,902.102C2108.09,911.249 2100.63,918.762 2090.73,924.642C2080.84,930.522 2069.27,933.462 2056.01,933.462C2042.39,933.462 2030.02,930.102 2018.91,923.382C2007.81,916.662 1999.08,907.236 1992.73,895.102C1986.39,882.969 1983.21,869.156 1983.21,853.662ZM2113.13,853.942C2113.13,842.369 2110.8,832.289 2106.13,823.702C2101.47,815.116 2095.17,808.536 2087.23,803.962C2079.3,799.389 2070.57,797.102 2061.05,797.102C2051.53,797.102 2042.85,799.342 2035.01,803.822C2027.17,808.302 2020.92,814.836 2016.25,823.422C2011.59,832.009 2009.25,842.089 2009.25,853.662C2009.25,865.422 2011.59,875.642 2016.25,884.322C2020.92,893.002 2027.17,899.629 2035.01,904.202C2042.85,908.776 2051.53,911.062 2061.05,911.062C2070.57,911.062 2079.3,908.776 2087.23,904.202C2095.17,899.629 2101.47,893.002 2106.13,884.322C2110.8,875.642 2113.13,865.516 2113.13,853.942Z" style="fill:white;fill-rule:nonzero;"/>
        <path d="M2195.17,752.582C2190.32,752.582 2186.21,750.902 2182.85,747.542C2179.49,744.182 2177.81,740.076 2177.81,735.222C2177.81,730.369 2179.49,726.262 2182.85,722.902C2186.21,719.542 2190.32,717.862 2195.17,717.862C2199.84,717.862 2203.81,719.542 2207.07,722.902C2210.34,726.262 2211.97,730.369 2211.97,735.222C2211.97,740.076 2210.34,744.182 2207.07,747.542C2203.81,750.902 2199.84,752.582 2195.17,752.582ZM2207.49,777.502L2207.49,930.942L2182.01,930.942L2182.01,777.502L2207.49,777.502Z" style="fill:white;fill-rule:nonzero;"/>
        <path d="M2241.37,853.942C2241.37,838.076 2244.55,824.216 2250.89,812.362C2257.24,800.509 2266.06,791.316 2277.35,784.782C2288.65,778.249 2301.57,774.982 2316.13,774.982C2334.99,774.982 2350.53,779.556 2362.75,788.702C2374.98,797.849 2383.05,810.542 2386.97,826.782L2359.53,826.782C2356.92,817.449 2351.83,810.076 2344.27,804.662C2336.71,799.249 2327.33,796.542 2316.13,796.542C2301.57,796.542 2289.81,801.536 2280.85,811.522C2271.89,821.509 2267.41,835.649 2267.41,853.942C2267.41,872.422 2271.89,886.702 2280.85,896.782C2289.81,906.862 2301.57,911.902 2316.13,911.902C2327.33,911.902 2336.67,909.289 2344.13,904.062C2351.6,898.836 2356.73,891.369 2359.53,881.662L2386.97,881.662C2382.87,897.342 2374.65,909.896 2362.33,919.322C2350.01,928.749 2334.61,933.462 2316.13,933.462C2301.57,933.462 2288.65,930.196 2277.35,923.662C2266.06,917.129 2257.24,907.889 2250.89,895.942C2244.55,883.996 2241.37,869.996 2241.37,853.942Z" style="fill:white;fill-rule:nonzero;"/>
        <path d="M2411.33,853.662C2411.33,837.982 2414.51,824.216 2420.85,812.362C2427.2,800.509 2435.93,791.316 2447.03,784.782C2458.14,778.249 2470.51,774.982 2484.13,774.982C2497.57,774.982 2509.24,777.876 2519.13,783.662C2529.03,789.449 2536.4,796.729 2541.25,805.502L2541.25,777.502L2567.01,777.502L2567.01,930.942L2541.25,930.942L2541.25,902.382C2536.21,911.342 2528.7,918.762 2518.71,924.642C2508.73,930.522 2497.11,933.462 2483.85,933.462C2470.23,933.462 2457.91,930.102 2446.89,923.382C2435.88,916.662 2427.2,907.236 2420.85,895.102C2414.51,882.969 2411.33,869.156 2411.33,853.662ZM2541.25,853.942C2541.25,842.369 2538.92,832.289 2534.25,823.702C2529.59,815.116 2523.29,808.536 2515.35,803.962C2507.42,799.389 2498.69,797.102 2489.17,797.102C2479.65,797.102 2470.97,799.342 2463.13,803.822C2455.29,808.302 2449.04,814.836 2444.37,823.422C2439.71,832.009 2437.37,842.089 2437.37,853.662C2437.37,865.422 2439.71,875.642 2444.37,884.322C2449.04,893.002 2455.29,899.629 2463.13,904.202C2470.97,908.776 2479.65,911.062 2489.17,911.062C2498.69,911.062 2507.42,908.776 2515.35,904.202C2523.29,899.629 2529.59,893.002 2534.25,884.322C2538.92,875.642 2541.25,865.516 2541.25,853.942Z" style="fill:white;fill-rule:nonzero;"/>
        <rect x="2610.13" y="723.742" width="25.48" height="207.2" style="fill:white;fill-rule:nonzero;"/>
        <path d="M1365.81,1043.78L1365.81,1064.5L1312.61,1064.5L1312.61,1238.94L1287.13,1238.94L1287.13,1064.5L1233.65,1064.5L1233.65,1043.78L1365.81,1043.78Z" style="fill:white;fill-rule:nonzero;"/>
        <path d="M1537.17,1156.34C1537.17,1161.2 1536.89,1166.33 1536.33,1171.74L1413.69,1171.74C1414.63,1186.86 1419.81,1198.67 1429.23,1207.16C1438.66,1215.66 1450.09,1219.9 1463.53,1219.9C1474.55,1219.9 1483.74,1217.34 1491.11,1212.2C1498.49,1207.07 1503.67,1200.21 1506.65,1191.62L1534.09,1191.62C1529.99,1206.37 1521.77,1218.36 1509.45,1227.6C1497.13,1236.84 1481.83,1241.46 1463.53,1241.46C1448.97,1241.46 1435.95,1238.2 1424.47,1231.66C1412.99,1225.13 1403.99,1215.84 1397.45,1203.8C1390.92,1191.76 1387.65,1177.81 1387.65,1161.94C1387.65,1146.08 1390.83,1132.17 1397.17,1120.22C1403.52,1108.28 1412.43,1099.08 1423.91,1092.64C1435.39,1086.2 1448.6,1082.98 1463.53,1082.98C1478.09,1082.98 1490.97,1086.16 1502.17,1092.5C1513.37,1098.85 1522.01,1107.58 1528.07,1118.68C1534.14,1129.79 1537.17,1142.34 1537.17,1156.34ZM1510.85,1151.02C1510.85,1141.32 1508.71,1132.96 1504.41,1125.96C1500.12,1118.96 1494.29,1113.64 1486.91,1110C1479.54,1106.36 1471.37,1104.54 1462.41,1104.54C1449.53,1104.54 1438.57,1108.65 1429.51,1116.86C1420.46,1125.08 1415.28,1136.46 1413.97,1151.02L1510.85,1151.02Z" style="fill:white;fill-rule:nonzero;"/>
        <path d="M1561.25,1161.94C1561.25,1146.08 1564.43,1132.22 1570.77,1120.36C1577.12,1108.51 1585.94,1099.32 1597.23,1092.78C1608.53,1086.25 1621.45,1082.98 1636.01,1082.98C1654.87,1082.98 1670.41,1087.56 1682.63,1096.7C1694.86,1105.85 1702.93,1118.54 1706.85,1134.78L1679.41,1134.78C1676.8,1125.45 1671.71,1118.08 1664.15,1112.66C1656.59,1107.25 1647.21,1104.54 1636.01,1104.54C1621.45,1104.54 1609.69,1109.54 1600.73,1119.52C1591.77,1129.51 1587.29,1143.65 1587.29,1161.94C1587.29,1180.42 1591.77,1194.7 1600.73,1204.78C1609.69,1214.86 1621.45,1219.9 1636.01,1219.9C1647.21,1219.9 1656.55,1217.29 1664.01,1212.06C1671.48,1206.84 1676.61,1199.37 1679.41,1189.66L1706.85,1189.66C1702.75,1205.34 1694.53,1217.9 1682.21,1227.32C1669.89,1236.75 1654.49,1241.46 1636.01,1241.46C1621.45,1241.46 1608.53,1238.2 1597.23,1231.66C1585.94,1225.13 1577.12,1215.89 1570.77,1203.94C1564.43,1192 1561.25,1178 1561.25,1161.94Z" style="fill:white;fill-rule:nonzero;"/>
        <path d="M1816.89,1082.7C1828.47,1082.7 1838.92,1085.18 1848.25,1090.12C1857.59,1095.07 1864.91,1102.49 1870.23,1112.38C1875.55,1122.28 1878.21,1134.32 1878.21,1148.5L1878.21,1238.94L1853.01,1238.94L1853.01,1152.14C1853.01,1136.84 1849.19,1125.12 1841.53,1117C1833.88,1108.88 1823.43,1104.82 1810.17,1104.82C1796.73,1104.82 1786.05,1109.02 1778.11,1117.42C1770.18,1125.82 1766.21,1138.05 1766.21,1154.1L1766.21,1238.94L1740.73,1238.94L1740.73,1031.74L1766.21,1031.74L1766.21,1107.34C1771.25,1099.5 1778.21,1093.44 1787.07,1089.14C1795.94,1084.85 1805.88,1082.7 1816.89,1082.7Z" style="fill:white;fill-rule:nonzero;"/>
        <path d="M1994.69,1082.7C2013.36,1082.7 2028.48,1088.35 2040.05,1099.64C2051.63,1110.94 2057.41,1127.22 2057.41,1148.5L2057.41,1238.94L2032.21,1238.94L2032.21,1152.14C2032.21,1136.84 2028.39,1125.12 2020.73,1117C2013.08,1108.88 2002.63,1104.82 1989.37,1104.82C1975.93,1104.82 1965.25,1109.02 1957.31,1117.42C1949.38,1125.82 1945.41,1138.05 1945.41,1154.1L1945.41,1238.94L1919.93,1238.94L1919.93,1085.5L1945.41,1085.5L1945.41,1107.34C1950.45,1099.5 1957.31,1093.44 1965.99,1089.14C1974.67,1084.85 1984.24,1082.7 1994.69,1082.7Z" style="fill:white;fill-rule:nonzero;"/>
        <path d="M2166.05,1241.46C2151.68,1241.46 2138.66,1238.2 2126.99,1231.66C2115.33,1225.13 2106.18,1215.84 2099.55,1203.8C2092.93,1191.76 2089.61,1177.81 2089.61,1161.94C2089.61,1146.26 2093.02,1132.4 2099.83,1120.36C2106.65,1108.32 2115.93,1099.08 2127.69,1092.64C2139.45,1086.2 2152.61,1082.98 2167.17,1082.98C2181.73,1082.98 2194.89,1086.2 2206.65,1092.64C2218.41,1099.08 2227.7,1108.28 2234.51,1120.22C2241.33,1132.17 2244.73,1146.08 2244.73,1161.94C2244.73,1177.81 2241.23,1191.76 2234.23,1203.8C2227.23,1215.84 2217.76,1225.13 2205.81,1231.66C2193.87,1238.2 2180.61,1241.46 2166.05,1241.46ZM2166.05,1219.06C2175.2,1219.06 2183.79,1216.92 2191.81,1212.62C2199.84,1208.33 2206.33,1201.89 2211.27,1193.3C2216.22,1184.72 2218.69,1174.26 2218.69,1161.94C2218.69,1149.62 2216.27,1139.17 2211.41,1130.58C2206.56,1122 2200.21,1115.6 2192.37,1111.4C2184.53,1107.2 2176.04,1105.1 2166.89,1105.1C2157.56,1105.1 2149.02,1107.2 2141.27,1111.4C2133.53,1115.6 2127.32,1122 2122.65,1130.58C2117.99,1139.17 2115.65,1149.62 2115.65,1161.94C2115.65,1174.45 2117.94,1185 2122.51,1193.58C2127.09,1202.17 2133.2,1208.56 2140.85,1212.76C2148.51,1216.96 2156.91,1219.06 2166.05,1219.06Z" style="fill:white;fill-rule:nonzero;"/>
        <rect x="2278.33" y="1031.74" width="25.48" height="207.2" style="fill:white;fill-rule:nonzero;"/>
        <path d="M2414.13,1241.46C2399.76,1241.46 2386.74,1238.2 2375.07,1231.66C2363.41,1225.13 2354.26,1215.84 2347.63,1203.8C2341.01,1191.76 2337.69,1177.81 2337.69,1161.94C2337.69,1146.26 2341.1,1132.4 2347.91,1120.36C2354.73,1108.32 2364.01,1099.08 2375.77,1092.64C2387.53,1086.2 2400.69,1082.98 2415.25,1082.98C2429.81,1082.98 2442.97,1086.2 2454.73,1092.64C2466.49,1099.08 2475.78,1108.28 2482.59,1120.22C2489.41,1132.17 2492.81,1146.08 2492.81,1161.94C2492.81,1177.81 2489.31,1191.76 2482.31,1203.8C2475.31,1215.84 2465.84,1225.13 2453.89,1231.66C2441.95,1238.2 2428.69,1241.46 2414.13,1241.46ZM2414.13,1219.06C2423.28,1219.06 2431.87,1216.92 2439.89,1212.62C2447.92,1208.33 2454.41,1201.89 2459.35,1193.3C2464.3,1184.72 2466.77,1174.26 2466.77,1161.94C2466.77,1149.62 2464.35,1139.17 2459.49,1130.58C2454.64,1122 2448.29,1115.6 2440.45,1111.4C2432.61,1107.2 2424.12,1105.1 2414.97,1105.1C2405.64,1105.1 2397.1,1107.2 2389.35,1111.4C2381.61,1115.6 2375.4,1122 2370.73,1130.58C2366.07,1139.17 2363.73,1149.62 2363.73,1161.94C2363.73,1174.45 2366.02,1185 2370.59,1193.58C2375.17,1202.17 2381.28,1208.56 2388.93,1212.76C2396.59,1216.96 2404.99,1219.06 2414.13,1219.06Z" style="fill:white;fill-rule:nonzero;"/>
        <path d="M2589.69,1082.98C2602.95,1082.98 2614.57,1085.88 2624.55,1091.66C2634.54,1097.45 2641.96,1104.73 2646.81,1113.5L2646.81,1085.5L2672.57,1085.5L2672.57,1242.3C2672.57,1256.3 2669.59,1268.76 2663.61,1279.68C2657.64,1290.6 2649.1,1299.14 2637.99,1305.3C2626.89,1311.46 2613.96,1314.54 2599.21,1314.54C2579.05,1314.54 2562.25,1309.78 2548.81,1300.26C2535.37,1290.74 2527.44,1277.77 2525.01,1261.34L2550.21,1261.34C2553.01,1270.68 2558.8,1278.19 2567.57,1283.88C2576.35,1289.58 2586.89,1292.42 2599.21,1292.42C2613.21,1292.42 2624.65,1288.04 2633.51,1279.26C2642.38,1270.49 2646.81,1258.17 2646.81,1242.3L2646.81,1210.1C2641.77,1219.06 2634.31,1226.53 2624.41,1232.5C2614.52,1238.48 2602.95,1241.46 2589.69,1241.46C2576.07,1241.46 2563.7,1238.1 2552.59,1231.38C2541.49,1224.66 2532.76,1215.24 2526.41,1203.1C2520.07,1190.97 2516.89,1177.16 2516.89,1161.66C2516.89,1145.98 2520.07,1132.22 2526.41,1120.36C2532.76,1108.51 2541.49,1099.32 2552.59,1092.78C2563.7,1086.25 2576.07,1082.98 2589.69,1082.98ZM2646.81,1161.94C2646.81,1150.37 2644.48,1140.29 2639.81,1131.7C2635.15,1123.12 2628.85,1116.54 2620.91,1111.96C2612.98,1107.39 2604.25,1105.1 2594.73,1105.1C2585.21,1105.1 2576.53,1107.34 2568.69,1111.82C2560.85,1116.3 2554.6,1122.84 2549.93,1131.42C2545.27,1140.01 2542.93,1150.09 2542.93,1161.66C2542.93,1173.42 2545.27,1183.64 2549.93,1192.32C2554.6,1201 2560.85,1207.63 2568.69,1212.2C2576.53,1216.78 2585.21,1219.06 2594.73,1219.06C2604.25,1219.06 2612.98,1216.78 2620.91,1212.2C2628.85,1207.63 2635.15,1201 2639.81,1192.32C2644.48,1183.64 2646.81,1173.52 2646.81,1161.94Z" style="fill:white;fill-rule:nonzero;"/>
        <path d="M2847.85,1085.5L2755.45,1311.18L2729.13,1311.18L2759.37,1237.26L2697.49,1085.5L2725.77,1085.5L2773.93,1209.82L2821.53,1085.5L2847.85,1085.5Z" style="fill:white;fill-rule:nonzero;"/>
    </g>
    <defs>
        <linearGradient id="_Linear1" x1="0" y1="0" x2="1" y2="0" gradientUnits="userSpaceOnUse" gradientTransform="matrix(245.787,0,0,245.787,1131.32,798.122)"><stop offset="0" style="stop-color:rgb(0,237,202);stop-opacity:1"/><stop offset="1" style="stop-color:rgb(0,154,135);stop-opacity:1"/></linearGradient>
        <linearGradient id="_Linear2" x1="0" y1="0" x2="1" y2="0" gradientUnits="userSpaceOnUse" gradientTransform="matrix(2.20698e-08,-491.57,491.57,2.20698e-08,1459.81,921.015)"><stop offset="0" style="stop-color:rgb(0,237,202);stop-opacity:1"/><stop offset="1" style="stop-color:rgb(0,154,135);stop-opacity:1"/></linearGradient>
        <linearGradient id="_Linear3" x1="0" y1="0" x2="1" y2="0" gradientUnits="userSpaceOnUse" gradientTransform="matrix(245.787,0,0,245.787,1622.89,798.122)"><stop offset="0" style="stop-color:rgb(1,93,170);stop-opacity:1"/><stop offset="1" style="stop-color:rgb(0,161,232);stop-opacity:1"/></linearGradient>
        <linearGradient id="_Linear4" x1="0" y1="0" x2="1" y2="0" gradientUnits="userSpaceOnUse" gradientTransform="matrix(2.20698e-08,491.57,-491.57,2.20698e-08,1540.19,675.23)"><stop offset="0" style="stop-color:rgb(0,161,232);stop-opacity:1"/><stop offset="1" style="stop-color:rgb(1,93,170);stop-opacity:1"/></linearGradient>
    </defs>
</svg>
