<?xml version="1.0" encoding="utf-8"?>
<!-- Generator: Adobe Illustrator 26.0.1, SVG Export Plug-In . SVG Version: 6.00 Build 0)  -->
<svg version="1.1" id="Lager_1" xmlns="http://www.w3.org/2000/svg" xmlns:xlink="http://www.w3.org/1999/xlink" x="0px" y="0px"
	 viewBox="0 0 1080 450" style="enable-background:new 0 0 1080 450;" xml:space="preserve">
<style type="text/css">
	.st0{fill:#870052;}
</style>
<g>
	<polygon class="st0" points="546.14,213.99 524.58,162.17 524.29,162.17 524.29,213.99 504.22,213.99 504.22,112.43 524.29,112.43 
		524.29,159.67 524.58,159.67 546.59,112.43 566.5,112.43 543.04,159.52 568.72,213.99 	"/>
	<g>
		<path class="st0" d="M609.91,172.52c-12.25,1.61-18.31,5.75-18.31,17.26c0,8.12,3.99,12.7,11.51,12.7c2.66,0,5.31-0.74,6.79-1.32
			V172.52z M602.23,215.46c-19.05,0-28.65-9.15-28.65-24.95c0-20.37,15.07-26.72,36.32-29.53v-2.66c0-7.52-4.42-11.05-11.37-11.05
			c-6.65,0-12.55,1.9-16.83,4.13l-3.99-12.55c4.58-2.51,12.56-5.91,24.52-5.91c14.9,0,26.12,7.38,26.12,29.22v47.39
			C622.6,213.24,614.63,215.46,602.23,215.46"/>
		<path class="st0" d="M677.2,148.74c-4.41-2.2-9.45-2.06-13.12-0.3v65.54h-19.06v-75.13c7.23-4.28,17.42-6.65,35.72-5.76
			L677.2,148.74z"/>
		<path class="st0" d="M714.7,147.13c-8.42,0-9.89,12.1-9.89,26.56c0,14.47,1.63,26.27,9.89,26.27c8.57,0,10.05-11.8,10.05-26.12
			C724.75,159.38,723.26,147.13,714.7,147.13 M714.7,215.46c-19.51,0-29.1-17.71-29.1-41.33c0-23.61,9.59-41.18,29.1-41.18
			c19.62,0,29.07,17.57,29.07,41.18C743.77,197.75,734.32,215.46,714.7,215.46"/>
		<polygon class="st0" points="758.84,213.99 758.84,103.78 778.16,98.12 778.16,213.99 		"/>
		<path class="st0" d="M795.57,134.43h19.19v79.56h-19.19V134.43z M805.01,121.44c-5.58,0-10.18-4.72-10.18-10.34
			c0-5.75,4.6-10.32,10.18-10.32c5.77,0,10.5,4.57,10.5,10.32C815.51,116.72,810.78,121.44,805.01,121.44"/>
		<path class="st0" d="M868.51,213.99v-56.25c0-6.93-2.82-10.77-9.61-10.77c-3.99,0-5.92,0.44-7.96,1.47v65.54h-19.06v-75.13
			c6.33-3.55,15.34-5.91,27.47-5.91c19.46,0,28.46,7.97,28.46,24.8v56.25H868.51z"/>
		<path class="st0" d="M920.3,215.46c-9.01,0-15.21-1.92-19.77-5.9l4.71-14.03c2.23,2.07,6.93,4.43,12.12,4.43
			c5,0,8.27-2.95,8.27-7.38c0-5.76-2.53-8.11-9.6-13.43c-7.52-5.61-14.17-12.55-14.17-23.03c0-13.58,8.99-23.17,22.28-23.17
			c8.57,0,14.9,2.21,19.49,5.91l-4.59,12.25c-1.92-1.78-5.59-3.83-10.49-3.83c-4.7,0-7.67,3.54-7.67,7.52
			c0,5.17,3.71,8.27,10.77,13.44c8.28,6.19,14.18,11.95,14.18,23.6C945.83,205.43,935.07,215.46,920.3,215.46"/>
		<polygon class="st0" points="998.83,213.99 978.61,172.37 978.31,172.37 978.31,213.99 959.27,213.99 959.27,103.78 978.31,98.12 
			978.31,170.88 978.61,170.88 998.97,134.43 1017.88,134.43 995.73,170.88 1019.49,213.99 		"/>
		<path class="st0" d="M1061.58,172.52c-12.29,1.61-18.31,5.75-18.31,17.26c0,8.12,3.97,12.7,11.49,12.7c2.66,0,5.34-0.74,6.81-1.32
			V172.52z M1053.89,215.46c-19.04,0-28.64-9.15-28.64-24.95c0-20.37,15.06-26.72,36.33-29.53v-2.66c0-7.52-4.46-11.05-11.4-11.05
			c-6.63,0-12.52,1.9-16.82,4.13l-3.98-12.55c4.58-2.51,12.54-5.91,24.51-5.91c14.91,0,26.11,7.38,26.11,29.22v47.39
			C1074.25,213.24,1066.27,215.46,1053.89,215.46"/>
		<rect x="504.22" y="237.23" class="st0" width="20.2" height="101.58"/>
		<path class="st0" d="M578.76,338.81v-56.26c0-6.95-2.8-10.78-9.59-10.78c-3.98,0-5.91,0.45-7.98,1.5v65.54h-19.03v-75.16
			c6.34-3.53,15.34-5.9,27.45-5.9c19.48,0,28.49,7.97,28.49,24.8v56.26H578.76z"/>
		<path class="st0" d="M630.58,340.28c-9.02,0-15.22-1.93-19.79-5.92l4.71-14.03c2.21,2.09,6.94,4.45,12.1,4.45
			c5.02,0,8.27-2.95,8.27-7.39c0-5.75-2.51-8.1-9.6-13.44c-7.51-5.57-14.16-12.52-14.16-23c0-13.6,8.99-23.18,22.28-23.18
			c8.56,0,14.91,2.22,19.49,5.9l-4.58,12.24c-1.92-1.75-5.61-3.82-10.48-3.82c-4.73,0-7.66,3.53-7.66,7.54
			c0,5.17,3.67,8.27,10.75,13.42c8.27,6.21,14.19,11.97,14.19,23.61C656.11,330.23,645.33,340.28,630.58,340.28"/>
		<path class="st0" d="M693.3,339.82c-13,0-20.08-8.85-20.08-22.88v-43.38h-7.08v-14.34h7.08v-17.27l19.19-6.04v23.31h10.47v14.34
			h-10.47v41.33c0,7.37,2.48,9.87,6.49,9.87c1.77,0,2.93-0.45,3.98-0.74v13.71C701.7,338.65,697.73,339.82,693.3,339.82"/>
		<path class="st0" d="M716.02,259.23h19.18v79.58h-19.18V259.23z M725.46,246.23c-5.61,0-10.16-4.72-10.16-10.32
			c0-5.77,4.56-10.34,10.16-10.34c5.79,0,10.48,4.57,10.48,10.34C735.95,241.52,731.25,246.23,725.46,246.23"/>
		<path class="st0" d="M776.24,339.82c-12.99,0-20.07-8.85-20.07-22.88v-43.38h-7.07v-14.34h7.07v-17.27l19.19-6.04v23.31h10.47
			v14.34h-10.47v41.33c0,7.37,2.51,9.87,6.51,9.87c1.76,0,2.93-0.45,3.96-0.74v13.71C784.65,338.65,780.67,339.82,776.24,339.82"/>
		<path class="st0" d="M826.59,340.28c-17.72,0-27.89-7.67-27.89-27.61v-53.44h19.17v55.67c0,6.33,3.1,10.31,9.31,10.31
			c2.93,0,5.59-0.74,7.66-1.91v-64.07h19.33v74.84C848.44,337.74,839.11,340.28,826.59,340.28"/>
		<path class="st0" d="M894.77,339.82c-12.98,0-20.07-8.85-20.07-22.88v-43.38h-7.07v-14.34h7.07v-17.27l19.18-6.04v23.31h10.47
			v14.34h-10.47v41.33c0,7.37,2.52,9.87,6.5,9.87c1.77,0,2.95-0.45,3.97-0.74v13.71C903.2,338.65,899.21,339.82,894.77,339.82"/>
		<path class="st0" d="M943.34,271.63c-7.11,0-11.69,9.75-11.55,23.76l21.57-2.66C953.36,279.32,950.4,271.63,943.34,271.63
			 M932.99,307.8c1.2,11.52,6.19,17.27,15.63,17.27c8.12,0,13.59-2.22,16.69-4.15l4.29,13.44c-5.03,3.55-12.87,5.92-23.5,5.92
			c-20.93,0-32.16-15.51-32.16-41.48c0-23.92,10.93-41.05,29.82-41.05c20.08,0,29.82,17.13,28.34,45.16L932.99,307.8z"/>
		<path class="st0" d="M1009.59,339.82c-13,0-20.07-8.85-20.07-22.88v-43.38h-7.08v-14.34h7.08v-17.27l19.19-6.04v23.31h10.48v14.34
			h-10.48v41.33c0,7.37,2.5,9.87,6.48,9.87c1.79,0,2.95-0.45,4-0.74v13.71C1018.01,338.65,1014,339.82,1009.59,339.82"/>
	</g>
</g>
<g>
	<g>
		<path class="st0" d="M56.08,350.16l-5.58-0.97c-0.13-0.02-0.28-0.06-0.47-0.09c-0.41-0.09-0.83-0.18-1.12-0.18
			c-1.19,0-2.11,0.85-2.11,1.94c0,0.91,0.49,1.67,1.31,2.03c0.26,0.12,0.5,0.17,0.74,0.17c0.2,0,0.39-0.04,0.61-0.08l6.62-1.63
			V350.16z"/>
		<path class="st0" d="M54.68,342.42c-0.09-0.13-0.18-0.27-0.26-0.4c-0.44-0.7-0.93-1.48-2.12-1.48c-1.2,0-2.1,0.89-2.1,2.07
			c0,1.29,1.08,1.9,1.86,2.34l5.01,3.13l0.75-0.82L54.68,342.42z"/>
		<path class="st0" d="M60.55,354.84c2.17,0,3.88-1.78,3.88-4.04c0-2.08-1.79-3.83-3.91-3.83c-2.16,0-3.91,1.77-3.91,3.94
			C56.6,353.08,58.37,354.84,60.55,354.84"/>
		<path class="st0" d="M61.06,355.24h-1.18l-1.17,5.75c-0.09,0.36-0.27,1.1-0.27,1.52c0,1.03,1.01,2.04,2.04,2.04
			c1.16,0,2.18-0.96,2.18-2.04c0-0.3-0.09-0.8-0.28-1.53L61.06,355.24z"/>
		<path class="st0" d="M68.71,361.18c1.18,0,2.1-0.92,2.1-2.1c0-1.2-0.83-1.7-1.57-2.15c-0.1-0.06-0.19-0.12-0.28-0.17L64,353.57
			l-0.81,0.77l3.73,5.77C67.29,360.65,67.72,361.18,68.71,361.18"/>
		<path class="st0" d="M72.18,352.87c1.08,0,2.07-0.96,2.07-2.02c0-1.1-0.96-2.03-2.11-2.03c-0.4,0-1.2,0.15-1.52,0.23l-5.64,1.12
			v1.17l5.66,1.31c0.13,0.02,0.26,0.04,0.4,0.07l0.03,0.01l0.03-0.13l-0.02,0.13C71.42,352.79,71.81,352.87,72.18,352.87"/>
		<path class="st0" d="M69.11,344.8l0.02-0.01c0.8-0.48,1.62-0.98,1.62-2.26c0-1.12-0.93-2.07-2.04-2.07c-1.3,0-1.81,0.86-2.27,1.64
			c-0.06,0.1-0.11,0.19-0.17,0.29l-3.09,4.85l0.82,0.85l4.78-3.08C68.89,344.94,69,344.87,69.11,344.8"/>
		<path class="st0" d="M61.1,346.47l1.21-5.65c0.02-0.09,0.05-0.22,0.09-0.38c0.1-0.4,0.22-0.85,0.22-1.14
			c0-1.12-1.02-2.11-2.18-2.11c-0.86,0-1.63,0.54-1.89,1.34c-0.22,0.56-0.14,0.95-0.04,1.44l1.42,6.51H61.1z"/>
		<path class="st0" d="M52.08,356.76L52.08,356.76c-0.1,0.06-0.19,0.13-0.3,0.2c-0.68,0.43-1.53,0.97-1.53,2.13
			c0,1.11,0.88,1.98,1.99,1.98c1.03,0,1.51-0.43,2.01-1.17l3.6-5.57l-0.89-0.74L52.08,356.76z"/>
		<path class="st0" d="M369.76,350.12l-5.6-0.97c-0.12-0.02-0.26-0.05-0.41-0.09c-0.4-0.09-0.86-0.19-1.16-0.19
			c-1.04,0-2.11,0.72-2.11,1.92c0,0.93,0.49,1.69,1.31,2.03c0.27,0.12,0.51,0.18,0.75,0.18s0.47-0.05,0.73-0.12l6.49-1.6V350.12z"/>
		<path class="st0" d="M368.36,342.38c-0.09-0.13-0.17-0.26-0.25-0.38l-0.01-0.02c-0.44-0.69-0.93-1.48-2.1-1.48
			c-1.21,0-2.12,0.89-2.12,2.06c0,1.25,1.01,1.84,1.83,2.32l5.04,3.15l0.75-0.8L368.36,342.38z"/>
		<path class="st0" d="M374.22,354.8c2.14,0,3.89-1.81,3.89-4.03c0-2.08-1.8-3.84-3.92-3.84c-2.16,0-3.92,1.77-3.92,3.94
			C370.26,353.04,372.04,354.8,374.22,354.8"/>
		<path class="st0" d="M374.74,355.2h-1.18l-1.18,5.74c-0.01,0.06-0.03,0.15-0.05,0.24l0.13,0.03l-0.14,0.01
			c-0.09,0.39-0.21,0.92-0.21,1.25c0,1.01,1.03,2.04,2.03,2.04c1.16,0,2.19-0.95,2.19-2.04c0-0.38-0.15-1.03-0.24-1.42L374.74,355.2
			z"/>
		<path class="st0" d="M385.83,348.77c-0.41,0-1.27,0.17-1.53,0.23l-5.64,1.13v1.17l5.65,1.31c0.11,0.02,0.24,0.04,0.36,0.07
			c0.35,0.07,0.79,0.16,1.2,0.16c1.06,0,2.06-0.99,2.06-2.04C387.93,349.72,386.95,348.77,385.83,348.77"/>
		<path class="st0" d="M382.94,356.89l-0.07-0.04c-0.07-0.05-0.15-0.09-0.22-0.14l-4.94-3.17l-0.84,0.75l3.74,5.79
			c0.42,0.64,0.89,1.06,1.8,1.06c1.16,0,2.1-0.94,2.1-2.1C384.49,357.84,383.67,357.33,382.94,356.89"/>
		<path class="st0" d="M382.8,344.76L382.8,344.76c0.8-0.48,1.62-0.98,1.62-2.26c0-1.12-0.93-2.07-2.02-2.07
			c-1.31,0-1.82,0.85-2.27,1.6c-0.06,0.1-0.13,0.21-0.19,0.32l-3.09,4.86l0.84,0.83l4.78-3.07
			C382.58,344.89,382.69,344.82,382.8,344.76"/>
		<path class="st0" d="M365.78,356.71L365.78,356.71c-0.1,0.07-0.2,0.13-0.32,0.2c-0.69,0.43-1.55,0.97-1.55,2.13
			c0,1.11,0.88,1.97,2.01,1.97c1.02,0,1.51-0.45,1.98-1.17l3.6-5.57l-0.88-0.73L365.78,356.71z"/>
		<path class="st0" d="M374.78,346.4l1.2-5.64c0.02-0.09,0.05-0.2,0.08-0.33c0.1-0.4,0.23-0.89,0.23-1.2c0-1.12-1.01-2.1-2.17-2.1
			c-0.86,0-1.64,0.56-1.9,1.34c-0.23,0.59-0.14,1-0.02,1.52l1.4,6.4H374.78z"/>
		<path class="st0" d="M192,26.86l2.83-11.4c0.41,0.83,1.57,3.16,5.24,10.48L192,26.86z M136.5,21.72L136.5,21.72
			c0.58-0.2,1.36-0.42,1.73-0.45c1.36-0.16,1.8,0.29,2.34,1.63c0.58,1.39,0.98,2.57,3.22,9.16l2.87,8.34l0.23,0.68
			c1.29,3.83,2.41,7.14,2.8,8.99c0.27,1.34,0.31,2.12-0.21,2.42l-1.52,0.72c-0.19,0.07-0.78,0.26-0.88,0.78
			c-0.07,0.43,0.19,0.75,0.36,0.87c0.15,0.1,0.31,0.16,0.5,0.16c0.24,0,0.5-0.08,0.79-0.18l5.64-2.08l6.56-2.08
			c0.49-0.16,0.82-0.39,0.96-0.69c0.1-0.21,0.11-0.43,0.02-0.69c-0.27-0.55-0.9-0.55-1.24-0.41l-2.24,0.57
			c-0.51,0.08-1.27,0.01-1.96-1.61c-0.77-1.84-1.95-5.3-3.32-9.29l-1.16-3.41c1.8,1.21,13.84,8.37,16.46,9.47
			c2.63,1.1,4.25,1.69,6.94,1.04l3.14-0.98c0.03-0.01,2.76-0.79,7.73-1.38l5.05-0.44c0.36-0.04,0.76-0.11,1-0.41
			c0.14-0.18,0.2-0.41,0.16-0.66c-0.03-0.24-0.12-0.43-0.28-0.56c-0.24-0.19-0.56-0.2-0.99-0.16l-0.71,0.08
			c-0.57,0.07-1.02,0-1.25-0.18c-0.17-0.13-0.26-0.34-0.3-0.66c-0.05-0.51,0.04-1.61,0.37-2.82l1.78-7.12
			c0.01-0.03,0.01-0.05,0.01-0.06l10.56-1.21c0.01,0,0.04,0,0.04-0.01c0,0,0.01,0.01,0.02,0.04l4.96,9.64
			c0.06,0.1,0.06,0.18,0.07,0.25l0.02,0.1c0.01,0.02,0.01,0.05-0.01,0.08c0,0-0.01,0.01-0.06,0.02l-0.04,0.02
			c-0.25,0.06-1.02,0.23-0.93,1c0.09,0.76,0.93,0.7,1.75,0.64l9.21-0.95c1.64-0.19,2.13-0.33,2.4-0.69l0.03-0.05
			c0.1-0.15,0.15-0.32,0.14-0.46c0-0.19-0.09-0.34-0.15-0.41c-0.13-0.21-0.42-0.44-1-0.35l-1.95,0.04
			c-1.02-0.13-2.34-0.76-4.43-4.45L196.57,5.68c-0.6-1.02-1.06-1.7-1.83-1.61c-0.81,0.1-1.08,0.93-1.49,2.39l-8.5,31.2
			c-0.44,1.61-0.89,3.01-1.86,3.76c-1,0.51-3.31,0.28-3.34,0.28c-2.53-0.1-5.06-1.28-7.52-2.43l-0.46-0.21
			c-2.19-1.01-13.48-7.07-16.45-8.94c1.29-2.66,5.44-11.04,6.29-12.71c1.13-2.22,2.28-3.78,3.61-4.91c0.72-0.58,1.75-1.12,2.34-1.32
			c0.25-0.1,0.43-0.2,0.54-0.31c0.22-0.14,0.35-0.39,0.35-0.66c0-0.44-0.38-0.82-0.84-0.82l-0.05,0c-0.23-0.01-0.47,0.06-0.7,0.13
			l-5.23,1.94l-4.7,1.45c-0.18,0.05-0.33,0.12-0.44,0.18c-0.32,0.12-0.54,0.43-0.54,0.76c0,0.25,0.11,0.49,0.27,0.59
			c0.29,0.32,0.69,0.3,1.06,0.26c0.14-0.02,0.3-0.04,0.45,0.37c0.03,0.09,0.04,0.19,0.04,0.3c0,0.65-0.43,1.74-0.93,3.01l-0.22,0.55
			c-0.38,0.98-1.78,4.03-3.74,8.17l-1.96,4.26l-0.45-1.31c-2.32-6.78-2.72-7.97-3.11-9.42c-0.16-0.61-0.23-1.02-0.23-1.35
			c0-0.6,0.21-0.94,0.78-1.26l1.18-0.55c0.15-0.05,0.53-0.2,0.71-0.54l0.11,0v-0.4c0-0.26-0.13-0.5-0.34-0.64l-0.12-0.08
			c-0.29-0.14-0.66-0.11-1.27,0.1l-5.4,2l-6.42,2.03c-0.46,0.16-1.4,0.51-1.13,1.34C135.21,21.82,135.71,21.97,136.5,21.72"/>
		<path class="st0" d="M214.27,441.82c-3.63-0.11-6.8-1.51-9.18-4.05c-3.06-3.27-4.65-8.15-4.48-13.76
			c0.17-5.25,1.53-9.13,4.05-11.53c2.33-2.17,5.25-2.63,7.28-2.63c0.14,0,0.29,0,0.42,0.01c3.38,0.1,6.38,1.46,8.68,3.92
			c2.97,3.15,4.51,7.91,4.33,13.38v0c-0.14,4.41-1.46,14.66-10.74,14.66C214.52,441.82,214.39,441.82,214.27,441.82 M213.85,406.68
			L213.85,406.68c-13.87-0.43-20.52,9.33-20.81,18.57c-0.15,4.88,1.44,9.69,4.37,13.2c3.44,4.13,8.54,6.41,14.74,6.6
			c0.29,0.01,0.59,0.01,0.88,0.01c5.47,0,10.27-1.79,13.89-5.18c3.75-3.54,5.93-8.6,6.12-14.24
			C233.39,414.34,226.04,407.08,213.85,406.68"/>
		<path class="st0" d="M279,434.14l-0.07,0.01c-0.38,0.1-2.34,0.43-3.03,0.46c-1.26,0.06-1.53-0.3-2.02-1.72
			c-0.69-2-1.7-6.06-2.76-10.35l-2.12-8.59c-1.4-5.62-2.24-9.63-2.6-11.36l-0.16-0.77c-0.14-0.52-0.35-0.88-0.63-1.06
			c-0.2-0.13-0.44-0.17-0.67-0.11c-0.5,0.1-0.95,0.59-1.32,1.04c-1.33,1.58-8.58,9.46-8.89,9.74l-0.08,0.08
			c-0.15,0.18-0.51,0.61-0.36,1.22c0.03,0.07,0.21,0.44,0.64,0.56c0.34,0.1,0.72,0,1.13-0.28l1.18-0.94
			c0.88-0.71,2.92-2.39,3.47-2.53c0.2-0.05,0.26-0.06,0.56,1.14l0.02,0.07c0.08,0.32,0.36,1.42,1.54,6.03l1.84,7.42
			c1.11,4.49,2.06,8.36,2.38,10.41c0.21,1.38,0.1,1.87-1.01,2.42c-0.83,0.41-3.06,1.13-3.53,1.24c-0.21,0.05-0.39,0.18-0.51,0.36
			c-0.09,0.15-0.18,0.39-0.09,0.76c0.07,0.29,0.29,0.64,0.9,0.64c0.19,0,0.38-0.03,0.52-0.06l7.88-2.15l7.79-1.77
			c0.37-0.08,0.74-0.21,0.92-0.56c0.17-0.38,0.17-0.71-0.01-0.96C279.62,434.09,279.06,434.13,279,434.14"/>
		<path class="st0" d="M284.48,405.39c-0.41-0.33-0.74-0.69-1.02-1.12l0.03-0.02l-0.07-0.11c-0.15-0.24-0.28-0.49-0.4-0.76
			c-0.29-0.71-0.44-1.46-0.44-2.18c0-0.65,0.12-1.28,0.36-1.83c0.5-1.23,1.54-2.19,3.07-2.85c2.61-1.08,5.25,0.16,6.43,3.01
			c1.58,3.84-0.12,6.59-1.32,7.91c-3.21-0.42-5.23-1.04-6.52-2.02l-0.11-0.08L284.48,405.39z M301.44,423.23
			c-0.61,1.47-1.81,2.63-3.36,3.27c-3.37,1.39-7.19-0.35-8.69-3.96c-1.87-4.54,0.09-8.24,1.47-10.09c4.5,0.64,8.73,1.26,10.44,5.41
			C302.07,419.7,302.12,421.6,301.44,423.23 M295.2,407.53c0.02-0.02,0.04-0.04,0.06-0.07c1.14-1.19,4.69-5.48,2.57-10.59
			c-0.76-1.87-2.03-3.17-3.75-3.88c-2.35-0.99-5.44-0.77-8.7,0.59c-7.22,2.93-8,7.96-8,9.98c0,1.03,0.19,2.05,0.56,2.94
			c1.35,3.24,4.29,5.03,9.24,5.63c-0.44,0.47-0.87,0.98-1.28,1.52c-1.97,2.49-3.01,5.18-3.01,7.76c0,1.32,0.25,2.59,0.75,3.77
			c0.98,2.34,2.65,4.05,4.81,4.93c1.23,0.52,2.62,0.78,4.12,0.78c2.01,0,4.15-0.47,6.35-1.38c4.84-2,6.94-5.06,7.86-7.27
			c1.08-2.61,1.1-5.44,0.05-7.96C304.51,408.65,298.17,407.84,295.2,407.53"/>
		<path class="st0" d="M335.03,408.6L335.03,408.6c-0.21-0.05-0.43-0.02-0.62,0.09c-0.31,0.19-2.09,1.11-2.75,1.35
			c-1.23,0.41-1.63,0.06-2.46-1.05c-1.17-1.58-3.15-4.85-5.24-8.31l-5.03-8.32l-5.88-10.18l-0.34-0.6c-0.3-0.49-0.6-0.77-0.96-0.86
			c-0.91-0.13-1.47,1.25-1.57,1.52c-0.79,1.85-5.46,11.66-5.62,11.96c-0.26,0.47-0.28,0.92-0.03,1.31c0.27,0.35,0.58,0.41,0.78,0.4
			c0.55-0.02,0.93-0.57,0.97-0.63c0.07-0.09,0.24-0.34,0.91-1.33c0.48-0.73,1.94-2.94,2.5-3.35l0.23-0.06
			c0.17,0.14,0.41,0.55,0.67,0.98l7.21,11.82c2.07,3.43,4.41,7.31,5.38,9.27c0.61,1.29,0.65,1.79-0.23,2.64
			c-0.66,0.61-2.56,1.91-3.02,2.19c-0.36,0.22-0.56,0.72-0.24,1.25c0.17,0.27,0.4,0.41,0.69,0.41c0.33,0,0.65-0.18,0.82-0.29
			l6.93-4.34l6.87-3.99c0.41-0.19,0.65-0.45,0.73-0.76c0.09-0.36-0.08-0.64-0.1-0.66C335.44,408.76,335.2,408.64,335.03,408.6"/>
		<path class="st0" d="M354.65,392.1c-0.11,1.22-0.6,2.2-1.47,2.92c-1.01,0.85-2.25,1.22-3.68,1.09c-3.58-0.32-8.43-3.75-12.97-9.17
			c-4.39-5.25-6.65-9.87-6.36-13.02c0.11-1.21,0.59-2.18,1.44-2.9c0.86-0.73,1.9-1.09,3.11-1.09c0.18,0,0.37,0.01,0.57,0.03
			c4.29,0.38,9.55,4.95,13.03,9.1C352.7,384.29,354.94,388.93,354.65,392.1 M339.03,365.11L339.03,365.11c-3.1-0.27-6,0.7-8.64,2.9
			c-6.87,5.75-6.07,14.71,2.18,24.57c4.4,5.28,9.62,8.3,14.32,8.3c2.71,0,5.25-0.97,7.56-2.89c2.7-2.3,4.22-5.1,4.5-8.32
			c0.43-4.91-1.89-10.55-6.72-16.3C350.33,371.08,345.21,365.67,339.03,365.11"/>
		<path class="st0" d="M6.66,179.07c1.69-7.79,9.65-11.77,19.37-9.69c13.2,2.84,13.08,10.41,12.41,13.54
			c-1.75,8.18-9.96,12.4-19.97,10.26C6.14,190.52,5.78,183.2,6.66,179.07 M18.33,200.84L18.33,200.84c1.42,0.31,2.88,0.46,4.35,0.46
			c3.4,0,6.66-0.83,9.43-2.39c4.68-2.65,7.85-7.25,9.15-13.31c1.23-5.73,0.38-11.08-2.46-15.47c-2.79-4.32-7.37-7.36-12.91-8.57
			c-5.16-1.1-9.9-0.38-13.71,2.09c-4.18,2.69-7.08,7.32-8.38,13.4c-1.34,6.21-0.38,11.83,2.77,16.25
			C9.28,197.06,13.56,199.81,18.33,200.84"/>
		<path class="st0" d="M16.87,141.84l0.02,0c0.36-0.12,0.56-0.46,0.71-0.79l0.77-1.31c0.82-1.09,1.45-1.1,2.81-0.56
			c1.43,0.57,2.63,1.12,9.18,4.2l7.64,3.57c3.6,1.68,7.32,3.41,9.06,4.51c1.17,0.76,1.75,1.25,1.61,1.85
			c-0.03,0.09-0.24,0.68-0.39,1.12c-0.09,0.25-0.13,0.38-0.16,0.46l0,0c-0.21,0.46-0.25,0.77-0.14,1.04
			c0.02,0.05,0.14,0.33,0.43,0.46c0.1,0.04,0.2,0.06,0.31,0.06c0.11,0,0.22-0.02,0.33-0.07c0.3-0.12,0.55-0.41,0.8-0.93l1.3-3.02
			l1.11-2.47l3.33-6.68l2.84-5.8c1.01-2.19,1.12-2.87-0.02-3.82c-1.14-0.99-4.25-2.82-4.79-3.07c-0.41-0.18-1.16-0.52-1.5,0.23
			c-0.25,0.53-0.05,0.98,0.61,1.36c0.72,0.46,1.6,1.46,1.87,2.14c0.58,1.41-0.05,2.92-1.14,5.26c-1.58,3.35-2.34,4.19-3.18,4.57
			c-1.02,0.46-4.33-1.09-9.33-3.44l-9.06-4.24c-5.35-2.51-6.46-3.03-7.69-3.71c-1.55-0.82-1.72-1.36-1.51-2.18l0.65-1.72
			c0.17-0.35,0.32-0.76,0.19-1.12c-0.07-0.21-0.22-0.36-0.44-0.46c-0.8-0.36-1.25,0.56-1.44,0.97l-2.6,5.93l-2.93,5.88
			c-0.28,0.63-0.35,0.99-0.24,1.3C15.96,141.63,16.31,142,16.87,141.84"/>
		<path class="st0" d="M118.79,51.6l2.78,0.36c4.67,0.58,6.41,2.01,7.58,3.98c1.22,2.09,0.73,5.37-2.59,7.33
			c-1.63,0.96-4.8,2.15-7.79-0.63c-0.63-0.59-1.24-1.31-1.52-1.77c-0.14-0.26-0.38-0.62-0.77-0.73c-0.22-0.06-0.46-0.03-0.67,0.09
			c-0.82,0.45-0.27,1.56-0.06,1.99l2.99,5.54c0.47,0.81,0.83,1.19,1.6,1.19c0.13,0,0.29-0.01,0.46-0.03
			c2.18-0.25,4.22-1.01,6.81-2.53c2.71-1.6,4.59-3.48,5.74-5.75c0.74-1.5,1.12-3.05,1.12-4.6c0-2.43-0.93-4.35-1.49-5.28
			c-2.38-4.03-5.86-5.79-13.3-6.75l-1.66-0.19c-4.62-0.53-6.44-1.29-7.52-3.11c-0.44-0.75-0.65-1.49-0.65-2.26
			c0-1.63,1.06-3.18,2.9-4.25c2.41-1.42,4.16-1.02,5.27-0.6c1.43,0.54,2.3,1.63,2.45,1.89c0.28,0.45,0.53,0.68,0.84,0.76
			c0.25,0.05,0.79-0.01,1.03-0.61c0.1-0.37-0.05-0.84-0.5-1.61l-2.4-4.37l-0.37-0.69c-0.4-0.67-1.14-0.44-1.38-0.36
			c-1.52,0.42-3.42,1.06-6.01,2.56c-3.17,1.88-5.32,4.49-6.06,7.35c-0.59,2.3-0.25,4.62,0.99,6.7
			C108.79,48.9,112.32,50.75,118.79,51.6"/>
		<path class="st0" d="M258.52,44.76c0.3,0,0.55-0.07,0.74-0.2c0.37-0.26,0.34-0.75,0.25-1.01l-0.04-0.09
			c-0.16-0.24-0.47-0.4-0.92-0.48l-2.34-0.58c-1.09-0.33-1.25-0.96-1.18-2.16c0.15-2.01,0.76-5.69,1.48-9.97l1.44-8.64
			c1.16-6.96,1.42-8.46,1.76-9.94c0.4-1.73,0.85-2.03,1.72-2.05l1.39,0.09c0.8,0.13,1.26-0.12,1.36-0.73l0.01-0.08l-0.08-0.34
			l-0.06-0.12c-0.19-0.27-0.54-0.42-1.2-0.53l-5.75-0.83L251,5.94c-0.66-0.1-1.13-0.12-1.44,0.11c-0.15,0.11-0.25,0.28-0.28,0.47
			c-0.05,0.31,0.01,0.56,0.2,0.76c0.18,0.19,0.46,0.31,0.85,0.38c0.43,0.07,1.05,0.2,1.57,0.44c0.77,0.32,1.02,1.02,0.87,2.42
			c-0.15,1.48-0.35,2.67-1.45,9.29l-1.51,9.02c-0.74,4.43-1.38,8.25-1.93,10.18c-0.41,1.49-0.78,1.78-1.31,1.79l-1.67-0.09
			c-0.8-0.13-1.25,0.08-1.35,0.63c-0.06,0.35,0.03,0.96,1.25,1.16l5.96,0.84l7.34,1.38C258.25,44.75,258.39,44.76,258.52,44.76"/>
		<path class="st0" d="M315.75,67.4c0,0.36,0.15,0.68,0.37,1.04c1.14,1.87,2.69,3.4,5.17,5.13c2.6,1.79,5.09,2.7,7.62,2.78
			c0.1,0,0.2,0,0.3,0c4.72,0,7.37-2.82,8.52-4.5c2.66-3.86,2.8-7.76,0.53-14.9l-0.54-1.59c-1.44-4.41-1.52-6.39-0.32-8.13
			c1.54-2.23,4.23-2.51,6.84-0.7c2.3,1.6,2.67,3.36,2.75,4.54c0.12,1.5-0.51,2.75-0.68,3c-0.08,0.11-0.46,0.66-0.34,1.16
			c0.05,0.21,0.19,0.39,0.36,0.47c0.2,0.13,0.6,0.3,1.1-0.07c0.23-0.17,0.48-0.46,0.79-0.91l2.94-3.99l0.49-0.63
			c0.43-0.65-0.07-1.21-0.26-1.42c-0.95-1.13-2.37-2.64-4.86-4.35c-3.04-2.1-6.31-2.96-9.2-2.42c-2.35,0.43-4.3,1.71-5.66,3.7
			c-2.44,3.53-2.64,7.51-0.68,13.74l0.84,2.68c1.43,4.49,0.86,6.67-0.43,8.55c-1.38,1.98-4.56,2.91-7.73,0.72
			c-1.56-1.06-3.99-3.42-2.71-7.33c0.26-0.81,0.66-1.69,0.96-2.13c0.14-0.21,0.41-0.6,0.33-1.04c-0.04-0.22-0.17-0.41-0.38-0.55
			c-0.78-0.53-1.55,0.47-1.8,0.8l-3.78,5.04C315.96,66.58,315.75,66.97,315.75,67.4"/>
		<path class="st0" d="M376.49,76.7c0.46,0.54,1.52,1.69,3.76,4.11c1.97,2.13,2.39,3.46,2.39,4.21c0,0.43-0.13,0.79-0.39,1.08
			l-0.32,0.39c-0.35,0.38-0.58,0.71-0.58,1.07c0,0.23,0.08,0.42,0.27,0.63c0.52,0.52,1.16,0.05,1.46-0.18l0.11-0.08l0.05-0.06v-0.01
			c0.57-0.53,2.96-2.75,3.95-3.67c0.32-0.32,0.69-0.68,0.69-1.09c0-0.2-0.09-0.39-0.28-0.58l-1.07-0.76
			c-0.07-0.06-1.41-1.25-2.3-2.04L370.9,66.03c-1.09-1.12-2.29-2.49-3.14-3.56c-0.44-0.52-0.59-0.95-0.72-1.29l-0.27-0.54
			l-0.07-0.09c-0.52-0.5-1.23-0.07-1.61,0.17c-0.29,0.17-4.12,2.6-4.73,3.18c-0.36,0.36-0.5,0.62-0.5,0.93l0.01,0.08
			c0.1,0.39,0.32,0.56,0.5,0.64c0.47,0.22,1.02-0.06,1.08-0.09c0.23-0.13,0.74-0.37,1.61-0.53c1.09-0.2,2.02,0.5,3.83,2.23
			l4.76,4.64c-2.02,1.97-13.66,13.3-13.79,13.42l-0.49,0.48c-2.87,2.8-5.35,5.21-6.85,6.35c-1.13,0.9-1.81,1.14-2.26,0.83
			l-1.32-1.06c-0.57-0.57-1.05-0.67-1.42-0.31c-0.17,0.14-0.27,0.33-0.28,0.55c-0.03,0.51,0.44,1.01,0.58,1.15l4.29,4.21l5.14,5.49
			c0.37,0.37,0.72,0.56,1.06,0.56c0.3,0,0.49-0.15,0.58-0.24c0.19-0.19,0.23-0.4,0.23-0.54c0-0.3-0.15-0.6-0.46-0.91l-1.55-1.86
			c-0.23-0.3-0.34-0.6-0.34-0.89c0-0.56,0.43-1.13,0.88-1.67c1.35-1.64,4.29-4.5,7.13-7.27C372.89,80.23,375.63,77.56,376.49,76.7"
			/>
		<path class="st0" d="M371.63,117.62L371.63,117.62c-1.36,0.73-1.82,0.66-2.19,0.3l-1.09-1.27c-0.19-0.28-0.45-0.61-0.82-0.68
			c-0.19-0.04-0.4,0.01-0.54,0.11c-0.23,0.13-0.38,0.33-0.42,0.58c-0.1,0.56,0.41,1.15,0.41,1.15l3.48,4.89l4.07,6.29
			c0.35,0.49,0.71,0.74,1.08,0.74c0.16,0,0.32-0.05,0.46-0.14c0.21-0.14,0.63-0.56,0.04-1.47l-1.18-2.1
			c-0.51-1.02-0.17-1.57,0.74-2.34c1.55-1.26,4.51-3.28,8.53-5.99l8.58-5.79c4.66-3.15,5.63-3.81,6.83-4.51
			c1.51-0.9,2.04-0.78,2.66-0.16l0.89,1.08c0.56,0.83,1.11,0.73,1.47,0.49c0.16-0.11,0.27-0.27,0.3-0.46
			c0.06-0.32-0.08-0.72-0.44-1.25l-3.37-4.74l-3.37-5.23c-0.26-0.4-0.87-1.32-1.57-0.88c-0.21,0.12-0.35,0.3-0.4,0.52
			c-0.11,0.48,0.24,0.98,0.27,1.03c0.37,0.56,0.62,1.05,0.76,1.44c0.31,0.8-0.01,1.45-1.15,2.32c-1.09,0.85-2.09,1.52-6.86,4.75
			l-8.99,6.08C376.18,114.83,373.33,116.76,371.63,117.62"/>
		<path class="st0" d="M407.75,125.58c0.25-0.04,0.8-0.09,1.69,0.07c1.11,0.2,1.73,1.17,2.81,3.43l2.84,6.01
			c-2.55,1.12-16.85,7.42-17.51,7.71l-0.14,0.06c-3.94,1.74-7.34,3.24-9.23,3.82c-1.4,0.45-2.09,0.45-2.4,0.02
			c-0.01-0.02-0.01-0.02-0.87-1.49c-0.2-0.43-0.47-0.67-0.8-0.73c-0.43-0.08-0.76,0.2-0.79,0.24c-0.42,0.34-0.19,0.88,0.04,1.42
			l2.56,5.44l2.89,6.91c0.21,0.48,0.47,0.78,0.8,0.9l0.07,0.02c0.06,0.01,0.12,0.01,0.17,0.01c0.31,0,0.49-0.14,0.59-0.26
			c0.34-0.41,0.13-1.09,0.08-1.23l-0.81-2.3c-0.05-0.16-0.08-0.33-0.08-0.5c0-0.71,0.55-1.16,1.49-1.7
			c1.75-1.03,5.14-2.53,9.08-4.27l1.78-0.78c3.97-1.75,13.85-6.11,15.88-7.01c0.29,0.76,0.97,2.45,2.09,5.15
			c0.62,1.5,0.93,2.75,0.93,3.72c0,1.2-0.49,1.71-0.9,1.93l-0.47,0.25c-0.53,0.28-0.96,0.56-0.96,1.06c0,0.14,0.04,0.29,0.1,0.39
			c0.31,0.72,1.11,0.45,1.47,0.34c0.06-0.03,5.14-2.1,5.15-2.11c0.55-0.24,0.89-0.41,1.02-0.78l0.03-0.08l-0.04-0.48l-0.79-1.19
			c-0.07-0.13-0.87-1.61-1.52-2.84l-7.63-17.34c-0.57-1.28-1.23-2.97-1.71-4.41c-0.21-0.63-0.21-1.09-0.22-1.48l-0.07-0.58
			l-0.02-0.09c-0.28-0.68-1.08-0.53-1.56-0.44c-0.43,0.08-4.78,1.01-5.54,1.33c-0.28,0.12-1.12,0.48-0.77,1.33
			C406.7,125.52,407.12,125.69,407.75,125.58"/>
		<path class="st0" d="M410.6,174.21c-6.07,1.12-9.88,3.24-12,6.7c-2.69,4.34-1.77,9.26-1.38,11.36c0.51,2.78,1.58,6.36,5.36,9.43
			c2.23,1.8,5.04,2.68,8.61,2.68c1.89,0,3.97-0.23,6.73-0.74l5.22-0.95c7-1.3,8.28-1.52,9.77-1.71c1.74-0.23,2.17,0.1,2.49,0.92
			l0.39,1.28c0.09,0.46,0.22,0.82,0.56,1.05c0.22,0.1,0.74,0.19,1.08-0.23c0.22-0.3,0.2-0.73,0.1-1.3l-1.13-5.31
			c-0.02-0.13-0.58-3.66-0.86-5.44c-0.08-0.41-0.17-0.68-0.29-0.88c-0.2-0.32-0.51-0.46-0.85-0.4c-0.29,0.05-0.46,0.2-0.54,0.32
			c-0.22,0.3-0.18,0.71-0.12,1.06l0.17,1.66c-0.03,1.36-0.54,1.73-1.95,2.08c-1.4,0.35-2.54,0.56-8.87,1.73l-6.93,1.28
			c-5.14,0.93-9,1.44-11.82-0.51c-2.57-1.76-3.34-4.58-3.55-5.71c-0.29-1.57-0.45-3.66,0.8-5.94c1.58-2.86,4.64-4.47,10.57-5.56
			l6.88-1.26c6.99-1.3,8.19-1.52,9.67-1.7c1.75-0.21,2.18,0.12,2.48,0.93l0.4,1.33c0.05,0.17,0.24,0.73,0.62,0.94
			c0.16,0.09,0.34,0.11,0.45,0.07c0.26-0.03,0.45-0.14,0.58-0.32c0.24-0.34,0.15-0.78,0.04-1.35l-1.21-5.75l-1.12-6.89
			c-0.08-0.44-0.28-1.48-1.17-1.33c-0.85,0.18-0.7,1.08-0.64,1.43c0.11,0.58,0.21,1.39,0.18,1.75c-0.04,1.38-0.54,1.75-1.95,2.1
			c-1.45,0.36-2.56,0.56-9.6,1.86L410.6,174.21z"/>
		<path class="st0" d="M437.83,219.63c-0.46-0.14-4.72-1.24-5.54-1.27c-0.52-0.03-0.82,0.04-1.08,0.29
			c-0.03,0.04-0.29,0.39-0.16,0.83c0.1,0.32,0.37,0.57,0.82,0.73c0.47,0.15,0.97,0.43,1.5,0.81c0.75,0.57,0.98,1.45,0.98,3.77v0.55
			c0,0-0.1,5.11-0.13,6.65c-2.61-0.12-16.29-0.75-19.25-0.89l-0.21-0.01c-4.21-0.2-7.84-0.37-9.76-0.69
			c-1.45-0.22-2.07-0.53-2.15-1.09l-0.12-1.72c0-0.04,0-0.09,0-0.13c-0.02-0.44-0.18-0.74-0.45-0.91c-0.38-0.23-0.8-0.04-0.86-0.01
			l-0.07,0.05c-0.26,0.22-0.39,0.58-0.41,1.18l-0.15,6l-0.49,7.5c-0.02,0.52,0.09,0.92,0.34,1.19c0.18,0.15,0.64,0.36,1.08,0.04
			c0.22-0.19,0.35-0.52,0.36-0.96l0.29-2.39c0.22-1.16,1.04-1.3,2.26-1.38c1.86-0.12,5.15,0.02,8.96,0.18l1.2,0.05
			c14.04,0.67,18.02,0.85,19.15,0.91c-0.08,0.69-0.19,2.16-0.42,5.53c-0.3,4.35-1.69,5.05-2.49,5.08l-0.51,0.02
			c-0.49,0-1.39,0.01-1.44,0.96c0,0.72,0.75,0.85,1.17,0.92c0.05,0,1.57,0.11,3.01,0.22c2.46,0.18,2.53,0.18,2.53,0.18
			c0.15,0.01,0.28,0.01,0.4,0.01c0.32,0,0.64-0.03,0.87-0.24l0.26-0.51l-0.19-1.42c0-0.06-0.02-0.67-0.08-3.24l0.89-18.91
			c0.07-1.53,0.24-3.34,0.45-4.73c0.08-0.62,0.27-1.01,0.43-1.35l0.22-0.62l0.02-0.08C439.09,219.99,438.33,219.77,437.83,219.63"/>
		<path class="st0" d="M432.96,266.96c-0.4-0.37-0.84-0.3-1.04-0.19c-0.26,0.14-0.43,0.42-0.56,0.94c-0.16,0.6-0.4,1.36-0.57,1.68
			c-0.62,1.25-1.28,1.34-2.64,1.06c-1.42-0.25-2.52-0.53-8.67-2.08l-9.51-2.43c-3.95-1-7.69-1.94-9.54-2.66
			c-1.11-0.46-1.96-0.86-1.93-1.51l0.22-1.65c0.12-0.48,0.11-0.8-0.07-1.08c-0.31-0.43-0.81-0.35-1.07-0.24
			c-0.29,0.16-0.5,0.52-0.64,1.08l-0.71,3.21l-0.62,2.63l-1.36,4.78l-2.18,8c-0.46,1.79-0.66,2.53,0.79,3.33
			c0.94,0.49,4.03,1.67,5.08,1.95c0.36,0.1,0.81,0.21,1.2-0.03c0.33-0.27,0.37-0.56,0.35-0.76c-0.07-0.53-0.68-0.83-0.87-0.92
			c-1.72-0.77-2.41-1.45-2.63-2.6c-0.22-1.3,0.28-3.26,0.55-4.31c1.21-4.82,1.99-4.86,4.74-4.24l10.79,2.74l0.07,0.03
			c-0.33,1.29-1.45,5.52-1.75,6.32c-0.49,1.28-1.06,1.81-1.98,1.82l-1.25-0.14l-0.44-0.08c-0.61-0.12-0.95,0.35-1.06,0.66
			c-0.2,0.85,0.71,1.1,1.09,1.2c0.14,0.04,2.18,0.69,3.05,0.97c0.13,0.05,1.76,0.64,2.88,1.05l0.43,0.16
			c0.26,0.07,0.49,0.06,0.68-0.06c0.18-0.1,0.3-0.29,0.34-0.49c0.11-0.43-0.15-0.8-0.42-1.18c-0.31-0.48-0.28-1.08-0.1-2.15
			c0.12-0.7,0.77-3.41,1.74-7.24l0.1,0l11.63,2.95l0.07,0.04c-0.32,1.2-1.55,5.63-1.8,6.33c-0.86,2.24-1.49,2.3-2.09,2.37
			c-0.46,0.07-1.12-0.02-1.57-0.12l-0.04-0.01l-0.28,0c-0.6-0.08-0.85,0.29-0.92,0.42l-0.04,0.09c-0.01,0.04-0.03,0.08-0.03,0.14
			v0.03c-0.12,0.67,0.48,0.98,0.7,1.09l2.1,0.71l0.89,0.28l2.48,0.97l0.45,0.18l0.08,0.02c0.1,0.02,0.2,0.03,0.28,0.03
			c0.39,0,0.65-0.22,0.74-0.64l0.01-0.54l-0.01-0.24l0.23-2.03c0.16-0.79,2.1-8.48,2.74-11l0.89-3.15l1.09-4.05
			c0.17-0.66,0.18-1.03,0-1.34L432.96,266.96z"/>
		<path class="st0" d="M421.48,306.18L421.48,306.18c-0.32-0.25-3.87-3.01-4.61-3.38c-0.43-0.21-0.74-0.26-1.04-0.16
			c-0.46,0.17-0.58,0.62-0.55,0.84c0,0.44,0.32,0.74,0.52,0.94c0.05,0.03,0.47,0.35,1.02,1.28c0.19,0.35,0.27,0.66,0.27,1.02
			c0,0.78-0.39,1.82-1.06,3.35l-0.17,0.37c-0.84,1.84-2.12,4.67-2.58,5.68l-9.33-4.53c-6.18-3-7.54-3.66-7.87-3.79l0.01-0.03
			l-0.57-0.28c-3.66-1.78-6.83-3.32-8.44-4.39c-1.08-0.66-1.59-1.18-1.59-1.64c0-0.11,0.01-0.18,0.01-0.2l0.57-1.56
			c0.15-0.29,0.22-0.54,0.22-0.77c0-0.09-0.01-0.15-0.03-0.23l-0.01-0.06l-0.07-0.11c-0.3-0.36-0.72-0.4-0.91-0.37l-0.07,0.02
			c-0.32,0.11-0.59,0.41-0.82,0.91l-1.59,3.45l-0.9,2.03l-1.05,1.99l-2.37,4.67c-0.24,0.44-0.46,1.28,0.23,1.67
			c0.19,0.09,0.39,0.11,0.58,0.04c0.27-0.1,0.51-0.35,0.69-0.75l1.23-2.1c0.6-0.89,1.32-0.83,2.61-0.36
			c1.88,0.64,5.15,2.25,8.95,4.11l0.25,0.12c0.02,0.01,0.02,0.01,4.41,2.15l0.78,0.38c4.32,2.1,10.51,5.11,12.1,5.88
			c-0.35,0.62-1.08,2.01-2.57,4.89c-2.01,3.91-3.55,4.01-4.3,3.72l-0.5-0.2c-0.52-0.2-1.31-0.5-1.7,0.29
			c-0.31,0.7,0.41,1.15,0.68,1.32l0.12,0.07l0.02-0.03c0.45,0.27,1.61,0.87,4.76,2.48l0.07,0.04c0.3,0.15,0.67,0.33,1.01,0.33
			c0.31,0,0.54-0.15,0.68-0.44l0.03-0.06l0.01-0.07c0.04-0.17,0.2-0.72,0.21-0.74l0.12-0.48c0.1-0.22,0.35-0.85,1.18-2.92
			l8.31-17.09c0.63-1.32,1.51-2.92,2.29-4.18c0.31-0.53,0.63-0.81,0.9-1.04l0.48-0.49l0.06-0.1
			C422.47,307,421.82,306.47,421.48,306.18"/>
		<path class="st0" d="M78.55,94.96L78.55,94.96c2.81,3.05,3.39,3.99,2.94,4.78c-0.35,0.6-0.96,1.22-1.3,1.54
			c-0.37,0.34-0.52,0.62-0.53,0.97c0.04,0.31,0.27,0.78,0.76,0.78c0.02,0,0.04,0,0.05,0h0.01c0.42,0,0.76-0.29,1.15-0.65l3.09-3.1
			l0.54-0.55l4.41-3.98c0.33-0.33,1.12-1.1,0.47-1.76c-0.57-0.58-1.28,0.06-1.52,0.27c-0.44,0.43-1.12,1.04-1.89,1.38
			c-0.82,0.37-2.2-0.45-4.35-2.6L68.94,78.59c0.17,0.01,0.36,0.03,0.55,0.04c2.19,0.17,8.87,0.68,15.01,0.81l19.91,0.49
			c0.77,0.02,1.57,0.01,2.1-0.38l0.27-0.01v-0.23c0.11-0.15,0.17-0.34,0.17-0.54c0-0.12-0.02-0.25-0.06-0.33
			c-0.12-0.34-0.38-0.72-0.79-1.15L85.71,55.04c-1.86-2.02-1.96-2.77-1.49-3.55l0.89-1.05c0.38-0.36,0.56-0.68,0.57-1
			c0-0.21-0.07-0.41-0.22-0.55c-0.15-0.17-0.34-0.26-0.55-0.27c-0.42-0.04-0.83,0.32-1.21,0.69l-2.7,2.71l-0.59,0.61l-4.31,3.87
			c-0.54,0.51-0.83,0.87-0.84,1.28l0,0.08l0.2,0.48l0.45,0.22l0.13,0.03h0.02c0.31-0.01,0.61-0.16,0.94-0.48
			c0.46-0.44,1.24-1.18,1.87-1.43c0.9-0.34,1.64-0.15,3.65,1.91l14.45,14.58c-1-0.05-2.69-0.13-3.54-0.17
			c-0.3-0.01-0.5-0.02-0.51-0.02l-10.25-0.45c-10.31-0.24-21.19-0.92-21.3-0.93l-0.66-0.04c-0.88-0.07-1.52-0.12-1.99,0.3
			c-0.78,0.73,0.25,1.84,0.64,2.26L78.55,94.96z"/>
		<path class="st0" d="M35.35,104.37c0.13,0.26,0.41,0.43,0.72,0.43c0.2,0,0.35-0.08,0.39-0.1c0.22-0.1,0.42-0.29,0.6-0.57
			c0.33-0.5,0.7-0.92,1.06-1.23c0.61-0.57,1.35-0.5,2.58,0.23c1.21,0.73,2.25,1.44,7.23,4.88l8.22,5.67
			c3.63,2.49,6.76,4.65,8.25,5.96c1.17,1,1.28,1.46,1.09,1.94l-0.81,1.47c-0.27,0.41-0.37,0.71-0.32,0.99
			c0.04,0.22,0.27,0.63,0.88,0.63l0.06,0c0.34-0.05,0.64-0.28,0.99-0.77l3.28-5.03l4.34-6.06c0.31-0.42,0.43-0.81,0.37-1.14
			c-0.04-0.22-0.17-0.42-0.36-0.54c-0.17-0.12-0.37-0.16-0.57-0.12c-0.29,0.06-0.56,0.28-0.79,0.64l-1.52,1.87
			c-0.76,0.83-1.4,0.71-2.46,0.15c-1.69-0.94-4.52-2.89-8.11-5.35l-7.51-5.19c-5.89-4.05-7.04-4.85-8.27-5.81
			c-1.39-1.08-1.47-1.63-1.12-2.42l0.67-1.22c0.46-0.67,0.43-1.18-0.07-1.53C44,92.05,43.81,92,43.61,92.03
			c-0.4,0.07-0.71,0.45-0.99,0.85l-3.19,4.87l-3.63,5.03c-0.34,0.48-0.51,0.83-0.53,1.06c-0.02,0.06-0.03,0.12-0.02,0.23l0.02,0.27
			L35.35,104.37z"/>
		<path class="st0" d="M18.29,235.56c-0.05,0.12-0.06,0.15-0.43,0.16l-14.52,0.45c-0.16,0-0.2-0.01-0.2-0.01
			c-0.01-0.01-0.02-0.04-0.03-0.07c-0.13-0.39-0.2-1.13-0.25-2.4c-0.05-1.69,0.61-3.44,1.77-4.69c1.43-1.52,3.55-2.34,6.3-2.41
			c0.18-0.01,0.36-0.01,0.53-0.01c3.87,0,5.63,1.51,6.34,2.4c0.57,0.75,0.77,1.31,0.82,3.11C18.67,233.39,18.54,234.72,18.29,235.56
			 M22.86,242.12c4.29-0.13,8-0.24,9.99-0.08c1.39,0.16,2.12,0.34,2.26,0.92l0.24,1.66c0.02,0.39,0.07,0.77,0.34,1
			c0.09,0.08,0.27,0.22,0.52,0.22c0.15,0,0.3-0.05,0.38-0.12c0.52-0.25,0.56-0.9,0.54-1.36l-0.33-5.79l-0.08-7.06
			c-0.01-0.26-0.04-0.85-0.39-1.17c-0.16-0.14-0.36-0.21-0.6-0.2c-0.22,0.01-0.41,0.09-0.56,0.24c-0.18,0.19-0.27,0.47-0.25,0.79
			l-0.12,2.31c-0.1,0.97-0.6,1.33-2.17,1.54c-1.92,0.29-5.55,0.41-9.75,0.55l-0.97,0.03l-0.06-4.07c0-0.32,0.04-0.42,0.12-0.5
			l3.1-2.4l3.36-2.55c3.78-2.95,5.9-4.83,6.94-6.93c0.68-1.38,0.87-2.73,0.79-5.36l-0.15-4.54c-0.01-0.48-0.09-0.78-0.25-0.99
			l-0.15-0.19l-0.06-0.05h-0.02c-0.13-0.09-0.28-0.13-0.44-0.13c-0.09,0-0.22,0.02-0.26,0.05c-0.19,0.05-0.64,0.25-0.62,0.99
			l-0.1,1.31c-0.11,0.7-0.4,2.56-2.94,5.19c-2.43,2.47-5.74,5.28-9.95,8.84l-1.96,1.66c-0.09-0.1-0.18-0.21-0.28-0.31l-0.27-0.31
			c-3.43-3.72-6.63-5.34-10.38-5.22c-3.6,0.12-6.03,2.46-6.82,3.69c-1.79,2.82-1.94,6.19-1.84,9.12l0.36,6.73l0.07,6.55
			c0.01,0.45,0.04,1.5,0.94,1.5c0.88-0.05,0.86-0.98,0.85-1.33c-0.03-0.64,0.01-1.42,0.07-1.75c0.24-1.35,0.8-1.64,2.26-1.77
			c1.45-0.15,2.79-0.19,9.26-0.4L22.86,242.12z"/>
		<path class="st0" d="M28.87,279.07l-11.67-1.3c0.85-0.58,3.16-2.15,9.66-6.59L28.87,279.07z M57.56,317.86
			c1.26-0.43,2.06-0.58,2.42-0.12l0.92,1.43c0.24,0.43,0.46,0.66,0.75,0.74l0.07,0.01c0.53,0.04,0.76-0.2,0.86-0.35
			c0.31-0.49-0.05-1.21-0.16-1.41l-2.82-5.29l-2.96-6.23c-0.22-0.45-0.5-0.75-0.81-0.85c-0.21-0.07-0.44-0.06-0.63,0.04
			c-0.28,0.14-0.44,0.4-0.44,0.73c0,0.18,0.05,0.38,0.16,0.61l0.01,0.01c0.07,0.19,0.26,0.66,0.83,2.06l0.02,0.04
			c0.05,0.15,0.07,0.3,0.07,0.42c0,0.61-0.46,1.18-1.4,1.74c-1.75,1.04-5.14,2.73-8.74,4.53c0,0-1.99,1-3.23,1.61
			c0.96-1.95,6.41-14.81,7.16-17.58c0.73-2.75,1.09-4.43,0.09-7.01l-1.39-2.96c-0.39-0.65-0.81-1.83-0.89-2.05l-1.24-4.48
			l-0.27-0.95l-1.11-4.96c-0.1-0.37-0.24-0.75-0.57-0.94c-0.2-0.11-0.42-0.14-0.67-0.07c-0.82,0.23-0.6,1.03-0.52,1.33l0.18,0.71
			c0.33,1.31-0.16,1.55-0.63,1.68c-0.49,0.12-1.59,0.18-2.84,0.02l-7.27-0.83l-0.08-0.01l-2.62-10.28
			c-0.01-0.03-0.01-0.04-0.01-0.05c0.01,0,0.02-0.01,0.04-0.03l8.9-6.22c0.12-0.1,0.21-0.1,0.32-0.1l0.05-0.01
			c0.04,0.01,0.11,0.12,0.25,0.42c0.22,0.38,0.56,0.54,0.97,0.45c0.71-0.18,0.56-0.97,0.39-1.81l-2.18-9.02l-0.14-0.54
			c-0.28-1.14-0.41-1.66-0.99-1.78c-0.35-0.06-0.58,0.08-0.71,0.21c-0.34,0.33-0.3,0.88-0.29,0.99l0.3,1.92
			c0.02,0.97-0.4,2.41-3.82,4.98L7.28,277.37c-1.03,0.77-1.55,1.33-1.37,2.03c0.22,0.81,1.11,0.94,2.58,1.17l32.06,4.22
			c1.67,0.22,3.14,0.49,4.08,1.44c0.31,0.26,0.57,1.86,0.62,3.2c0.23,2.52-0.64,5.3-1.41,7.76l-0.15,0.47
			c-0.71,2.33-5.18,14.34-6.63,17.51c-2.75-0.89-11.54-3.88-13.43-4.54c-2.34-0.81-4.04-1.73-5.36-2.89
			c-0.68-0.65-1.35-1.58-1.61-2.11c-0.15-0.3-0.34-0.63-0.7-0.72l-0.07-0.02l-0.56,0.05l-0.37,0.37l-0.05,0.12
			c-0.09,0.3-0.04,0.62,0.2,1.09l2.62,4.91l2.08,4.47c0.23,0.46,0.45,0.69,0.72,0.77l0.07,0.02l0.43-0.04l0.13-0.04
			c0.62-0.34,0.46-0.98,0.38-1.3c-0.04-0.14-0.08-0.28,0.31-0.49c0.56-0.28,2.15,0.12,3.69,0.51l0.27,0.06
			c1.1,0.27,4.33,1.27,7.48,2.25l1.06,0.33c2.5,0.77,3.83,1.18,4.54,1.4l-0.72,0.37c-0.5,0.26-0.94,0.49-0.95,0.5l-0.7,0.35
			c-5.24,2.6-6.49,3.22-7.79,3.77c-1.61,0.7-2.13,0.5-2.66-0.2c-0.04-0.06-0.35-0.56-0.54-0.86c-0.07-0.11-0.11-0.18-0.14-0.22l0,0
			c-0.45-0.88-1.06-0.72-1.31-0.61c-0.78,0.4-0.33,1.33-0.13,1.74l2.7,5.09l2.88,6.05c0.26,0.52,0.5,0.87,0.85,1l0.09,0.03
			l0.43-0.05l0.12-0.04c0.52-0.27,0.59-0.79,0.22-1.54c-0.28-0.55-0.59-1.27-0.67-1.65c-0.35-1.35,0.1-1.85,1.32-2.53
			c1.26-0.74,2.25-1.24,8.6-4.42l8.01-4.01C52.17,320.29,55.64,318.54,57.56,317.86"/>
		<path class="st0" d="M95.69,374.07c-0.44,1.3-1.68,4.93-3.7,10.85l-0.07,0.2l-6.35-5.06L95.69,374.07z M94.6,405.05
			c-0.61-0.83-1.07-2.22,0.08-6.25l9.18-30.4c0.31-1.1,0.48-1.91-0.14-2.41c-0.65-0.5-1.43-0.11-2.76,0.62l-28.16,15.9
			c-2.31,1.3-3.78,1.79-5.37,0.84l-1.21-0.87l-0.06-0.03c-0.41-0.18-0.76-0.19-1.05-0.03c-0.36,0.21-0.42,0.61-0.43,0.68l0,0.06
			c0.03,0.36,0.27,0.62,0.71,0.97l3.68,2.81l0.79,0.58l3.87,3.3c0.28,0.23,0.75,0.62,1.14,0.37c0.38-0.19,0.5-0.47,0.53-0.67
			c0.07-0.52-0.37-0.95-0.47-1.04l-0.56-0.45c-0.47-0.37-0.73-0.72-0.76-1.02c-0.03-0.22,0.06-0.44,0.25-0.68
			c0.33-0.4,1.22-1.13,2.27-1.72l6.31-3.72c0.02-0.01,0.04-0.02,0.06-0.04l8.29,6.66c0.01,0.01,0.02,0.02,0.02,0.02
			c0,0.01-0.01,0.02-0.01,0.04l-3.37,10.3c-0.04,0.13-0.09,0.22-0.15,0.26l-0.12,0.06c-0.01,0.01-0.01,0.01-0.03,0.01l-0.05-0.01
			l-0.01,0l-0.06-0.02c-0.56-0.36-1-0.34-1.32,0.06c-0.49,0.61,0.19,1.18,0.79,1.68l7.15,5.91c1.17,0.92,1.63,1.23,2.07,1.23
			c0.04,0,0.08,0,0.14-0.01c0.39-0.11,0.53-0.35,0.58-0.54c0.12-0.47-0.28-0.93-0.41-1.06L94.6,405.05z"/>
		<path class="st0" d="M149.03,396.56l1.26,0.51c1.02,0.53,1.43,0.11,1.59-0.19c0.39-0.8-0.48-1.26-1-1.54l-3.45-1.64l-0.77-0.35
			l-5.08-2.75c-0.1-0.05-0.19-0.1-0.28-0.15c-0.46-0.25-0.99-0.54-1.36-0.12c-0.29,0.29-0.32,0.58-0.29,0.77
			c0.07,0.5,0.58,0.8,0.68,0.85c0.49,0.25,1.52,0.76,1.98,1.29c0.28,0.34,0.41,0.67,0.42,1.06c0.03,0.62-0.27,1.52-0.99,3.03
			c-0.33,0.68-7.23,14.9-8.98,18.5c-0.39-1.31-1.18-3.94-1.18-3.96l-2.96-9.78c-3.21-9.87-6.15-20.31-6.18-20.39l-0.17-0.62
			c-0.27-1.03-0.62-1.63-1.08-1.82c-0.26-0.11-0.48-0.06-0.57-0.02c-0.42,0.14-0.81,0.59-1.22,1.42l-13.3,24.98
			c-1.91,3.62-2.63,4.51-3.53,4.35c-0.65-0.13-1.43-0.47-1.9-0.73c-0.33-0.16-0.69-0.3-1.06-0.17c-0.53,0.23-0.57,0.75-0.48,1.02
			c0.12,0.4,0.49,0.62,1,0.88l3.95,1.89l0.68,0.32l1.13,0.65l4.09,2.21c0.62,0.31,1,0.4,1.33,0.29c0.47-0.14,0.61-0.6,0.55-1
			c-0.1-0.28-0.35-0.52-0.8-0.74c-0.55-0.28-1.34-0.72-1.92-1.34c-0.62-0.67-0.31-2.25,1-4.96l8.23-17.14l0.14,0.48
			c1,3.72,2.53,9.27,4.23,14.47l2.76,8.59l3.37,10.36c0.25,0.8,0.55,1.61,1.24,1.95c0.09,0.03,0.19,0.05,0.28,0.05
			c0.78,0,1.4-1.07,1.51-1.29l14.24-26.6C147.45,396.73,148.09,396.38,149.03,396.56"/>
		<path class="st0" d="M191.5,406.87l-3.7-0.91l-0.85-0.2l-5.55-1.69c-0.63-0.17-1.14-0.28-1.55-0.04
			c-0.04,0.03-0.39,0.28-0.36,0.73c0.02,0.66,0.69,0.85,0.98,0.94c0.53,0.14,1.64,0.43,2.2,0.87c0.5,0.39,0.7,0.83,0.7,1.55
			c0,0.55-0.12,1.29-0.43,2.54l-0.04,0.18c-0.45,1.77-4.04,16.04-4.98,19.76c-0.64-1.2-1.89-3.51-2-3.72l-4.84-8.88
			c-4.6-8.01-9.5-17.33-10.21-18.7l-0.33-0.65c-0.39-0.77-0.68-1.32-1.26-1.47c-1.04-0.28-1.43,1.12-1.6,1.72l-7.93,27.17
			c-1.06,3.66-1.61,4.96-2.56,4.99c-0.55-0.01-1.25-0.11-2-0.31c-0.29-0.09-1.07-0.33-1.37,0.35c-0.1,0.14-0.18,0.4-0.07,0.67
			c0.14,0.37,0.55,0.62,1.24,0.78l5,1.21l5.69,1.71c0.58,0.16,1.13,0.32,1.48-0.08c0.28-0.34,0.26-0.64,0.19-0.83
			c-0.17-0.51-0.81-0.7-0.93-0.73c-0.74-0.22-1.52-0.47-2.17-0.93c-0.74-0.5-0.75-2.11-0.02-5.06l4.57-18.46l0.28,0.54
			c1.23,2.43,4.12,8.12,7.04,13.22l4.34,7.66l5.52,9.62c0.3,0.57,0.78,1.35,1.42,1.61l0.25,0.11l0.05-0.02
			c0.3,0.05,0.61-0.08,0.82-0.33c0.22-0.25,0.4-0.63,0.58-1.28l8.52-28.95c0.78-2.64,1.34-3.09,2.27-3.1l1.37,0.22
			c0.57,0.12,1,0.05,1.26-0.22c0.28-0.28,0.25-0.64,0.23-0.73C192.72,407.24,192.17,407.05,191.5,406.87"/>
		<path class="st0" d="M269.18,47.47l0.05-0.13L269.18,47.47l4.09,1.5l0.76,0.26l5.48,2.33c0.39,0.15,1.44,0.54,1.81-0.32
			c0.07-0.19,0.06-0.39-0.03-0.58c-0.2-0.42-0.76-0.63-0.87-0.66c-0.63-0.25-1.44-0.61-2.05-1.14c-0.68-0.61-0.51-2.21,0.52-5.05
			l6.54-17.85l0.19,0.49c0.96,2.54,3.2,8.5,5.59,13.95l3.54,8.18l4.42,10.1c0.31,0.69,0.69,1.54,1.39,1.81l0.62,0.03l0.08-0.03
			c0.4-0.17,0.72-0.61,1.01-1.39l11.59-27.86c1.06-2.54,1.67-2.94,2.6-2.85l1.31,0.36c0.51,0.2,0.87,0.23,1.17,0.11l0.16-0.07
			l0.31-0.83l-0.06-0.15c-0.15-0.36-0.53-0.58-1.13-0.82l-3.6-1.31l-0.78-0.27l-5.35-2.27c-0.59-0.23-1.57-0.62-1.92,0.21
			c-0.04,0.11-0.06,0.22-0.06,0.33c0,0.61,0.66,0.87,0.88,0.96c0.67,0.26,1.62,0.65,2.1,1.09c0.39,0.38,0.55,0.75,0.55,1.27
			c0,0.63-0.22,1.48-0.73,2.83c-1.44,3.88-6.04,16.34-7.14,19.28c-0.26-0.64-0.73-1.79-1.53-3.74l-3.93-9.52
			c-3.22-7.37-6.4-15.33-8.01-19.41l-0.35-0.9c-0.29-0.81-0.53-1.45-1.12-1.69c-0.23-0.09-0.47-0.08-0.69,0.01
			c-0.52,0.23-0.84,0.9-1.08,1.53l-10.83,26.16c-1.55,3.84-2.15,4.77-3.08,4.68c-0.51-0.05-1.15-0.22-1.96-0.53
			c-0.98-0.4-1.33,0.03-1.45,0.33C267.79,46.9,268.7,47.27,269.18,47.47"/>
		<path class="st0" d="M328.48,240.14c-0.05,0.02-0.09,0.03-0.14,0.05C328.44,240.16,328.49,240.14,328.48,240.14"/>
		<path class="st0" d="M381.78,189.63c-10.93-20.41-35.79-14.02-39.3-12.68c-11.64,4.44-17.59,15.08-18.47,26.46
			c-10.26-14.05-6.14-32.07-6.02-33.24c0.39-2.91,0.66-7.33,0.39-9.19c0.84-0.33,3.37-1.49,5.11-3.27
			c9.54-9.81,0.35-12.46-4.13-6.95c0.5-7.32-3.36-4.34-5.44-3.5c-0.17-5.18-3.87-2.41-4.65-1.16c-2.27-7.65-8.17-1.48-9.83,1.15
			c-9.68-2.58-11.02,1.6-11.14,1.56c4.37,1.38,4.86,2.23,4.93,3.32c0.09,1.36-1.99,3.15-4.93,3.28c0.13,0.39,5.63,2.16,7.77-0.78
			c2.3-3.16,0.27-5.33,0.02-5.35c2.41,0.22,4.44,0.65,6.44,1.3c8.1,2.62,10.7,3.84,11.14,11.17c0.2,3.49-0.7,7.84-1.25,10.45
			c-1.36,6.41-1.12,17.47,0,23.27c1.7,8.79,11.93,26.32,15.94,18.11c1.72-3.56,2.53-11.63,5.52-19.78
			c3.59-9.73,13.17-15.49,26.75-12.68c19.95,5.6,19.64,21.76,18.07,25.38c0,0,0.32-11.73-10.1-15.22c2.19,4.6,3.03,13.96,0.84,20.99
			c0.86-6.68-3.34-16.23-15.84-19.13c9.25,16.83,1.22,38.37,0.44,39.24c14.92-12.14,7.23-29.76,7.23-29.76s7.76,7.53,3.3,24.14
			c12.15-8.25,9.04-28,9.11-27.89c2.82,4.93,3.44,8.07,2.33,17.21c0.03-0.25,2.4-0.11,5.83-10.18
			C385.25,195.67,381.78,189.63,381.78,189.63z"/>
		<path class="st0" d="M323.93,248.57c8.09-0.29,15.81-4.35,19.52-7.32c-14.34,3.88-26.06,1.75-31.38-0.48
			c-9.46-3.97-19.9-18.02-21.56-20.77c-3.43-5.69-4.93-17.44-2.22-28.01c2.04-8.16,9.34-24.84,9.66-28.94
			c0.51-3.78-3.2-4.9-3.52-5.13c-0.05-0.04-0.12-0.05-0.17-0.02c-13.69,5.4-11.21,14.31-6.58,13.8c0.06,0.92-0.18,3.22,2.03,3.99
			c-0.83,2.48-8.01,14.92-8.48,23.88c-1.2,22.91,10.57,31.98,13.22,35.77c5.73,8.19-0.75,13.98-3.74,14.68
			c-2.99,0.7-5.37,0.81-7.88,0.1c-1.99-0.56-4.94-1.7-7.02-1.64c-3.63,0.1-5.23,2.72-6.19,4.52c0,0,3.56-0.2,6.38,0.15
			c2.82,0.35,3.03,0.42,3.97,0.74c-0.01,2.95-0.41,4.59-0.73,5.44s-0.12,1.84-0.12,1.84c2.74-0.67,6.01-2.95,6.39-5.97
			c5.46,0.83,7.87,0.89,11.15,2.8c-0.01-1.15,1.11-3.2,2.41-4.43c1.87-1.76,8.35-3.35,8.46-3.26c9.25,7.15,4.78,27.32,4.28,28.23
			c-0.51,0.91-2.28,1.61-6.1,1c-0.65,0.51-1.18,0.45-1.95,1.77c-2.92-0.34-8.62-1.12-12.03,0.16c-4.84,1.84-9.73,6.3-10.69,8.04
			c-0.4,0.72-1.52,2.54-0.17,3.21c1.1,0.49,6.41,0.33,8.95,0.28c2.18-0.04,34.88-0.02,37.58-0.14c6.27-0.09,13.12-0.96,13.89-1.23
			c1.69-0.54,1.39-1.34,1.39-1.34c-0.04-0.57-2.6-5.68-10.01-6.38c-8.2-1.48-14.19-1.44-14.55-1.67c0.93-0.99,2.5-2.04,2.75-3.05
			c0.33-1.4-0.08-10.44,0.2-14.19C321.76,255.47,322.86,252.35,323.93,248.57"/>
		<path class="st0" d="M136.57,236.03c-6.47,3.8-18.97,9.08-18.97,9.08c-4.55-0.08-13.19-9.66-16.73-17.57
			c-3.55-7.91-3.76-26.24-3.76-31.31h61.46c0,0-10.74,3.35-12.66,15.84C144,224.57,148.17,229.22,136.57,236.03z M108.38,259.11
			c2.54-7.61,24.99-14.79,31.55-18.17c5.29,15.98-25.49,14.09-27.45,30.28C106.41,264.33,108.38,259.11,108.38,259.11z
			 M62.06,194.84c-0.71-4.87-0.1-13.62,7.57-18.95c8.39-5.83,21.68-6.73,30.39-4.46c4.25,1.1,3.21,2.7,2.14,2.49
			c-7.92-1.55-15.06-1.12-22.54,2.11c-14.62,6.28-15.97,24.71,3.39,29.73c0.75,2.82,0.81,3.49,1.71,7
			C67.64,211.79,62.76,199.71,62.06,194.84z M169.61,190.91c-1.29-3.57-94.78-1.61-94.78-1.61s2.49-16.2,28.43-11.39
			c10.4,1.95,13.25,7.06,29.34,7c0.92,0,1.11-1.68,0.26-1.81c-4.89-0.77-4.4-2.69-3.89-3.66c0.75-1.41,4.86,0.77,6.09,0.49
			c0.32-0.07,0.64-0.94,0.8-1.6c0.1-0.4-0.18-0.88-0.62-1.14c-8.42-4.97-13.15-5.58-19.49-4.35c-2.51,0.49-10.52-2.8-13.4-3.7
			c-11.14-3.45-26.8-3.01-35.02,2.73c-10.16,7.08-17.4,20.55-6.62,36.57c4.52,6.73,13.77,9.72,25.6,10.79
			c5.07,22.9,20.94,28.29,24,29.71c0.11,0.05-5.95,2.96-7.94,7.82c-0.72,1.75-2.81,11.69,8.79,19.15c-1.14,4.41-5.38,7.9-9.58,9.21
			c-2.77,0.86-5.07,0.79-6.88,2.44c-1.35,1.28-1.52,5.03-1.52,5.3c16.99,0,33.68,0.04,50.66,0.04c0.49-3.18-0.48-5.49-4.07-6.48
			c-5-1.84-4.81-0.88-9.56-4.62c-5.12-3.38-4.58-17.54-4.33-19.21c0.66-1.29,12.43-4.83,16.35-10.17c3.92-5.33,3.07-9.95,1.61-13.54
			c10.49-7.49,8.09-23.02,8.93-26.8c1.44-6.5,4.31-8.18,9.32-10.07c2.77-1.05,6.76-0.65,7.79-1.57
			C170.91,199.53,170.98,192.5,169.61,190.91"/>
	</g>
	<path class="st0" d="M233.38,255.17c-0.12-3.59-0.08-4.33-0.15-8.73c17.29-6.31,27.1-13.08,29.76-23.71
		c7.63-30.45-27.04-35.8-30.52-36.77c-0.09-2.33-0.07-3.91-0.15-5.68c21.92-6.72,29.19-18.03,28.05-29.74
		c-0.53-5.41-2.08-17.72-29.8-24.62c-0.53-17.54-1.45-23.91-3.44-27.07c-2-3.17-4.5-4.13-6.52-4.17c-6.4-0.17-8.87,8.47-9.86,16.27
		c-0.01,0.04-0.01,0.08-0.02,0.13c-0.45,3.26-0.77,7.08-1.01,11.53c-2.69-0.57-5.09-1.13-7.66-3.11c-3.45-2.66-1.85-6.63-0.26-8.76
		c6.56-7.42,9.17-16.85,9.29-19.86s0.13-4.43-0.8-7.21c-0.79-2.33-2.04-3.37-3.41-3.91c0.56-1.18,0.86-2.36,1.66-3.12
		c3.07-2.95,2.4-2.01,7.33-7.62c0.37-0.83-0.38-1.09-0.79-0.7c-2.36,2.23-5.62,3.53-6.41,3.84c-2.78,1.09-0.79-4.08-0.35-7.25
		c0.11-0.81-0.74-0.69-0.98-0.29c-1.39,2.36-1.94,3.67-2.95,7.77c-0.76,3.07,1.2,4.09-0.38,6.69c-1.28-0.03-2.13,0.05-3.65,0.74
		c-3.39,1.55-15.18,11.64-12.71,23.58c1.08,3.69-2.54,9.63-3.25,12.61c-3.7,15.36,12.75,25.85,24.71,28.21c0,0.11,0,0.21,0,0.32
		c-0.14,2.75-0.19,4.85-0.32,10.06c-15.95,3.59-24.51,9.22-29.06,18c-2.7,5.21-3.14,14.1,0,19.49
		c6.18,10.63,15.79,14.56,27.65,19.68c0.03,2.35-0.29,11-0.29,11c-13.18,3.49-24.75,7.6-30.65,17.15
		c-3.81,6.16-2.61,17.45,1.14,23.51c4.8,7.75,13.23,12.28,28.24,17.08c-0.08,2.47-0.14,8.78-0.26,10.42
		c-9.63,2.92-15.34,8.68-17.13,15.81c-3.6,14.96,6.45,22.63,16.38,27.6l-0.55,23.32c-0.22,3.67-0.35,7.16-0.25,10.41
		c0.06,1.13,1.05,3.56,6.67,4.84c4.42,1.01,7,1.08,12.61,0.94c5.49-0.17,10.29-1.58,11.58-4.35c0.47-1,0.3-2.55,0.37-3.73
		l-0.49-32.82l-0.59-22.78c11.89-3.08,25.95-8.9,29.15-20.14C269.2,269.14,250.73,259.92,233.38,255.17z M219.85,108.24
		c0.22-4.73,4.5-5.28,4.81-0.96c0.76,10.55,0.98,23.28,1.35,43.87c-2.78,0.79-6.81,1.43-6.81,1.43S219.24,114.64,219.85,108.24z
		 M190.28,116.56c1.73-7.55,3.25-10.67,2.72-13.29c-1.96-9.61,6.62-16.35,8.49-17.71c1.71-1.24,3.85-0.94,4.47,0.47
		c1.42,3.26,0.63,10.5-8.1,21.99c-1.93,2.54-8.9,15.48,11.59,19.86c-0.15,3.51-0.22,6.39-0.28,9.84
		C197.48,135.58,188.28,125.48,190.28,116.56z M187.11,179.1c0-13.62,27.81-17.91,40.34-20.48c10.79-2.22,10.62-14.22,3.88-17.56
		c0,0-0.26-5.58-0.32-9.37c10.74,2.1,19.41,7.15,22.42,13.48c3.91,8.22-0.72,18.53-10.41,24.01c-8.7,4.93-22.56,6.62-30.86,8.08
		c-8.3,1.46-10.33,9.65-4.21,12.18c0.03,3.05-0.27,7.44-0.4,10.97C196.84,197.52,187.11,191.17,187.11,179.1z M227.08,218.79
		l-8.1,1.46v-36.97l7.4-1.58L227.08,218.79z M183.55,249.33c0.05-18.45,45.16-23.11,45.03-23.24c11.2-1.51,12.95-16.6,4.39-19.52
		c-0.05-3.82-0.26-8.58-0.32-13.68c9.93,1.88,24.93,8.3,24.93,20.23c0,10.77-5.49,17.2-16.5,21.69c-9.3,3.78-20.45,5.85-31,8.7
		c-9.89,2.65-7.15,11.24-3.71,13.28c0,0-0.22,8.92-0.4,12.36C197.89,267.92,183.51,263.31,183.55,249.33z M228.02,286.38l-9.04,1.55
		v-38.12l8.52-2.09L228.02,286.38z M217.72,360.7l0.39-47.53l10.03-1.66c0,0,0.59,46.36,0.59,48.9
		C228.74,362.61,217.5,363.25,217.72,360.7z M251.49,295.9c-4.47,4.06-16.48,7.8-32.54,10.03c-12.28,1.71-14.91,7.15-13.93,10.41
		c-0.07,2.34-0.19,6.02-0.27,8.47c-3.4-1.73-9.28-6.88-8.84-13c1.36-16.51,18.75-15.78,34.07-18.64
		c15.29-2.51,15.45-18.76,3.67-21.48c0-3.49-0.11-6.9-0.15-10.15c13.5,2.75,19.07,7.56,22.37,13.14
		C260.54,282.56,258.06,289.93,251.49,295.9z"/>
</g>
</svg>
