<svg width="56" height="56" viewBox="0 0 56 56" fill="none" xmlns="http://www.w3.org/2000/svg">
<path d="M56 5.87102C56 4.69642 55.5429 3.59252 54.7127 2.76372C52.9991 1.04942 50.211 1.05082 48.4967 2.76372L17.0856 34.1755C16.6061 34.655 16.4031 35.3284 16.492 35.9892L0.276471 52.2047C0.0510712 52.4301 -0.0462288 52.7542 0.0209712 53.0671C0.0881712 53.38 0.307271 53.6362 0.604071 53.7517C0.758771 53.8112 2.66627 54.5224 5.24507 54.5224C7.82387 54.5224 11.0089 53.8231 13.8173 51.0959L20.531 44.3808C20.7536 44.1582 20.8502 43.839 20.7886 43.5296L20.2776 40.9725L22.4504 38.799L22.7843 38.876C23.0153 38.9299 23.2477 38.9551 23.478 38.9551C24.2781 38.9551 25.0495 38.6415 25.6319 38.0584L51.0769 12.6141L51.0776 12.6134L54.712 8.97902C55.5422 8.14882 55.9993 7.04492 55.9993 5.87032L56 5.87102ZM47.0176 14.0092L44.7986 9.12742L49.8302 4.09582C50.3202 3.60652 50.9621 3.36222 51.6061 3.36222C52.2501 3.36222 52.8906 3.60652 53.3806 4.09582C53.8545 4.56972 54.1156 5.20042 54.1156 5.87032C54.1156 6.54022 53.8538 7.17232 53.3792 7.64622L47.0169 14.0085L47.0176 14.0092ZM20.286 38.2999L18.5885 39.9967C18.3659 40.2193 18.2693 40.5385 18.3309 40.8479L18.8419 43.405L12.4957 49.7533C9.08247 53.0664 4.92727 52.8277 2.75657 52.3916L17.5623 37.5859C17.5679 37.5887 17.5749 37.5894 17.5805 37.5922C17.7499 37.6846 17.934 37.756 18.1272 37.8015L20.2867 38.2999H20.286ZM43.3748 10.5519L45.5938 15.4337L24.3005 36.727C24.0142 37.0147 23.6089 37.1323 23.2092 37.0399L18.5514 35.9647C18.5024 35.9535 18.473 35.929 18.4436 35.9045C18.4226 35.8863 18.4009 35.8674 18.382 35.8345C18.3715 35.8149 18.3554 35.7939 18.3498 35.775C18.3302 35.705 18.3253 35.6014 18.4184 35.5076L43.3741 10.5526L43.3748 10.5519Z" fill="#012C46"/>
</svg>
